<?xml version="1.0" encoding="UTF-8"?>
<svg id="Capa_2" data-name="Capa 2" xmlns="http://www.w3.org/2000/svg" viewBox="0 0 193.76 228.54">
  <defs>
    <style>
      .cls-1 {
        fill: #fff;
      }

      .cls-2 {
        fill: #95bb20;
      }

      .cls-2, .cls-3, .cls-4, .cls-5, .cls-6, .cls-7 {
        fill-rule: evenodd;
      }

      .cls-8 {
        fill: #f8b900;
      }

      .cls-3 {
        fill: #da0e15;
      }

      .cls-4 {
        fill: #55742b;
      }

      .cls-5 {
        fill: #de0072;
      }

      .cls-6 {
        fill: #682371;
      }

      .cls-7 {
        fill: #0096d5;
      }
    </style>
  </defs>
  <g id="Capa_1-2" data-name="Capa 1">
    <g>
      <path class="cls-5" d="M142.81,53.45l-.03-.06-.1-.27v-.16s0-.26,0-.26l-.2-.07-.03-.19.1-.11-.03-.08-.13-.23.02-.2.06-.12v-.35s-.12-.21-.12-.21l.04-.19s.15-.06.13-.16c-.02-.1-.11-.07-.11-.07l-.1-.14-.02-.43-.18-.2s-.18-.12-.18-.24,0-.47,0-.47l-.06-.05-.22.16-.16-.22s-.12-.16-.12-.25.08-.23.02-.33c-.06-.1-.18-.27-.18-.27l-.24-.23-.06-.23-.26-.02v-.37l-.2-.2-.28.02s-.06-.12-.22-.12h-.33l-.18-.06s-.18-.1-.28-.1h-.3l-.14-.31.23-.77-.06-.84-.1-.08-.18-.18-.22-.25-.18-.23-.35-.02-.24-.06-.2.04-.33-.16-.24.06-.2-.14-.16-.25-.33-.25s0,.04-.1-.02c-.1-.06-.33-.29-.33-.29,0,0-.1-.2-.24-.27-.14-.08-.3-.2-.3-.2l-.08-.25s-.08-.18-.12-.27c-.04-.1-.02-.22-.18-.29-.16-.08-.37-.14-.37-.14l-.3-.04s-.28.02-.39-.04c-.1-.06-.04-.12-.14-.1-.1.02-.16-.04-.16-.16s-.04-.33-.04-.33l-.2-.12s.02-.23-.1-.31c-.12-.08-.26-.14-.3-.02-.04.12-.16.31-.16.31l-.14-.22-.12-.23-.16-.22s-.14-.23-.22-.14c-.08.1-.06.12-.16.1-.1-.02-.14-.08-.14-.08l-.02-.25-.37-.27-.45.1s-.14.04-.33.04-.53.06-.53.06l-.1-.16-.33-.16-.3-.29-.22-.27-.35.02-.18.2-.14.08-.24-.27-.26-.25-.24-.23-.2-.1s-.12.04-.22,0c-.1-.04-.28-.22-.28-.22l-.12-.18-.26-.02s-.14.04-.28,0c-.14-.04-.33-.14-.33-.14l-.22-.18.04-.35-.16-.25-.02-.25v-.2l-.26-.16-.18-.29s-.06-.18-.16-.18-.3.02-.3.02l-.2-.25-.2-.16s-.14-.16-.22-.27c-.08-.12-.26-.23-.26-.23h-.39l-.28-.35-.43-.31-.12-.29-.12-.37-.26-.22-.35-.06-.3-.33-.35-.29-.43-.04s-.26-.18-.35-.27c-.08-.1-.18-.39-.18-.39l-.16-.43-.2-.22v-.35l-.06-.7-.26-.31s-.16-.18-.22-.27c-.06-.1-.24-.41-.24-.41l-.2-.35-.28-.14-.18-.22h-.49l-.14-.27-.12-.29-.3-.25-.53-.23-.37-.12-.39-.2-.22-.06-.26-.18-.12-.2s-.08-.16-.18-.23-.62-.03-.62-.03l-.24-.18-.37-.06h-.26l-.24-.06-.08-.16-.16-.27-.02-.31-.1-.35-.28-.23-.33-.25s-.26-.35-.37-.47c-.1-.12-.41-.57-.41-.57l-.21-1.13-.33-.65-.28-.37-.35-.39c-.24-.25-.27.01-.59.01h-.26l-.14-.25-.16-.29s-.18-.2-.35-.23c-.16-.04-.39-.08-.39-.08l-.24-.12-.12-.2-.23-.29-.15-.4s.06-.16,0-.27-.35-.49-.35-.49c0,0-.12-.18-.26-.23-.14-.06-.05-.06-.19-.14-.14-.08-.33-.29-.45-.37s-.35-.22-.47-.33c-.12-.12-.33-.25-.51-.25s-.96-.17-1.11-.23c-.14-.06-.66-.08-.77-.14-.1-.06-.2-.14-.37-.25-.16-.12-.33-.37-.43-.47-.1-.1-.47-.31-.47-.31l-.39-.08-.22-.07-.07-.04-2.59-1.8s-.06-.09-.07-.11c-.04-.1-.18-.35-.24-.45-.06-.1-.18-.2-.18-.29s-.2-.35-.2-.48-.06-.43-.06-.43l-.16-.27-.28-.26-.43-.25-.3-.33s-.1-.42-.14-.53c-.04-.12-.13-.36-.19-.46-.06-.1-.24-.33-.26-.47-.02-.14.03-.33-.03-.46-.03-.08-.13-.21-.21-.34-.07-.1-.13-.3-.16-.37-.08-.16-.3-.41-.35-.53-.04-.12-.35-.78-.35-.78l-.22-.51-.2-.49-.45-.41-.37-.45-.3-.47-.49-.33-.47-.27-.37-.14-.3-.12s-.07-.53-.23-.53-.16-.09-.32-.09-.51.31-.51.31l-.16.22h-.3l-.54-.36-.49-.4-.55-.67-.04-.24-9.88-.17h0s-44.58-.78-44.58-.78l-.62,15.58.48,5.79,4.09,4.82-.39,2.38,2.98.32.57,8.28,2.24-1.13-.39,1.46,4.21-1.68.73,1.51,2.47-.43.05,1.24,1.07.91.95.23-.27,1.84h.68l2.98-2.14.05.84,4.06-.1,1.4-2.55,2.87,2.94,3.38-3.64h2.15s1.96.1,1.96.1l.22,2.05-1.12-.07.47,1.07-.84,2.13-2.35.17,2.25,2.58-2.14,3.01,2.4.04-4.72,5.58,2.7,2.33-1.71,2.09,4.23-1.79,7.31,4.55,1,9.45.75,2.13,2.87.81-.22,1.35.24,1.02.93,1.56-1.17-.12v2.42s3-1.21,3-1.21l1.63,1.35,1.26-1.19,3.31,1.04,4.01-2.5,4.56,1.6,5.63-.34.32,3.27.32-1.23,4.82-6.38-.03-5.26-4.19-.16-.04-.88,7-5.53v-2.54s4.1-2.29,4.1-2.29l6.4.84,1.85-3.57,1.76.17-.09,2.47,3.26-.85-.25-3.84,4.49-.67,6.04,1.32s0-.09.01-.13l.02-.19Z"/>
      <path class="cls-1" d="M107.34,83.35s-.06,0-.09,0c-.58-.04-1.04-.5-1.1-1.07l-.21-2.13-4.49.27c-.16,0-.32-.01-.47-.07l-4.02-1.41-3.52,2.19c-.3.18-.66.23-.99.13l-2.64-.83-.75.71c-.44.42-1.12.44-1.58.05l-1.08-.9-2.35.94c-.37.15-.79.1-1.11-.12-.33-.22-.53-.59-.52-.99v-2.42c0-.33.14-.65.38-.87-.05-.09-.09-.19-.11-.29l-.24-1.02c-.04-.15-.04-.32-.02-.47l.05-.29-1.84-.52c-.37-.11-.67-.39-.8-.75l-.75-2.13c-.03-.09-.05-.18-.06-.27l-.94-8.87-6.29-3.91-3.66,1.54c-.51.21-1.09.05-1.42-.38-.33-.44-.32-1.05.03-1.47l.97-1.19-1.82-1.57c-.5-.43-.55-1.18-.13-1.67l3.1-3.66c-.4-.04-.75-.29-.93-.65-.2-.4-.16-.87.09-1.23l1.59-2.24-1.63-1.87c-.3-.34-.38-.82-.2-1.24.17-.42.57-.7,1.02-.74l1.6-.12.38-.97-.27-.61c-.17-.38-.13-.82.11-1.16.05-.07.1-.13.16-.18h-.27s-1.61-.02-1.61-.02l-3.02,3.25c-.22.24-.53.38-.86.38-.33,0-.64-.13-.87-.36l-1.74-1.78-.62,1.13c-.2.37-.59.61-1.02.62l-4.06.1c-.23,0-.45-.05-.63-.16l-1.73,1.24c-.2.15-.45.22-.7.22h-.68c-.35,0-.68-.15-.9-.41s-.33-.61-.28-.96l.11-.76c-.14-.05-.27-.12-.38-.22l-1.07-.91c-.22-.19-.37-.45-.41-.74l-1.14.2c-.52.09-1.05-.18-1.28-.66l-.25-.51-3.18,1.27c-.42.17-.9.08-1.24-.22-.1-.09-.18-.19-.24-.29l-.28.14c-.36.18-.78.17-1.13-.03-.35-.2-.57-.56-.6-.96l-.5-7.28-1.98-.22c-.33-.04-.62-.2-.82-.46-.2-.26-.28-.59-.23-.92l.3-1.83-3.73-4.4c-.16-.19-.26-.43-.28-.67l-.48-5.79s0-.1,0-.15l.62-15.58c.03-.64.55-1.15,1.19-1.15,0,0,.01,0,.02,0l44.58.76c.06,0,.12,0,.18.02l9.71.17c.55,0,1.01.39,1.14.91l.28.33.24.2c.47-.31.79-.31.91-.31.24,0,.43.05.57.11.29.06.71.24.97.79l.11.04c.06.02.13.05.18.09l.47.27s.05.03.07.04l.49.33c.13.09.24.2.33.34l.27.42.27.33.38.35c.13.12.23.26.29.42l.2.48.22.5c.2.43.29.64.34.76.02.02.04.05.06.08.09.12.19.26.27.41.04.09.08.17.1.24,0,.02.01.04.02.06.11.16.21.31.28.47.11.25.13.49.13.67.03.05.06.09.08.12.1.15.18.35.3.7.03.08.06.2.09.33l.26.15c.07.04.14.09.2.15l.28.26c.09.08.16.17.22.27l.16.27c.07.11.12.24.14.37.02.11.05.26.07.4.04.08.09.17.14.29.03.04.06.08.09.13.04.06.13.22.21.37l2.27,1.58.31.06c.13.03.25.07.36.14.5.29.65.44.7.49.09.09.17.18.24.27.03.03.07.09.09.12l.06.04s.03.02.04.03c.02,0,.03,0,.05,0,.23.03.45.05.66.13.14.04.58.13.73.15.63.02,1.11.41,1.29.59.04.03.17.12.23.16l.05.03c.15.09.26.2.36.29.02.02.05.05.07.07.07.04.14.09.2.14.29.17.49.41.58.54.34.44.42.6.44.65.12.23.16.45.16.65l.05.06s.1.02.14.03c.45.11.78.41.94.58.02.02.03.03.04.05.55-.03.94.3,1.11.48,0,0,.02.02.02.03l.35.39s.04.04.05.06l.28.37c.05.06.08.12.12.19l.33.65c.05.1.09.21.11.32l.16.88c.08.12.16.23.19.26.08.09.22.27.31.4l.2.16s.02.01.02.02l.28.23c.19.15.32.36.39.59l.1.34.18.03c.14.02.28.07.4.14.44,0,.74.1,1,.29.19.15.33.33.42.47.06.02.12.04.18.07l.3.15.28.09s.08.03.12.05l.53.23c.1.04.2.1.28.17l.3.25c.11.09.2.2.27.32.24.06.46.19.62.39l.02.02.06.03c.22.1.4.27.52.48l.2.35h0s.15.25.21.36c.02.03.07.08.1.12.01.01.02.03.03.04l.26.31c.16.19.26.42.28.67l.06.7c.05.08.1.16.13.25l.14.37c.23.03.45.12.63.28l.35.29s.07.07.11.1l.03.03c.18.04.35.12.49.24l.26.22c.18.14.31.34.38.55l.09.28.15.11c.06.04.11.09.16.14.16.03.32.09.45.17.14.09.41.29.6.56.01.01.04.05.06.08l.11.08s0,0,.01,0c.42.08.78.36.98.77h0c.36.22.58.61.58,1.03v.07s.05.08.07.12h.07c.32.03.62.18.83.43.08.02.16.05.23.08l.2.1c.11.05.22.13.31.22l.16.16s.01,0,.02,0l.35-.02c.38-.02.75.14.99.44l.18.22.12.11.12.06c.06,0,.12,0,.17,0,.02,0,0,0,.04,0l.45-.1c.34-.07.69,0,.97.21l.37.27s.03.02.04.03c.22.07.43.2.6.39.22.02.46.1.73.27.24.16.41.37.51.6.09.09.16.19.22.3l.12.02c.06,0,.12.02.18.04.05.01.31.09.55.21.4.2.67.52.79.96.02.05.05.11.07.15.22.14.38.33.48.48.08.04.16.09.24.14l.33.25s.08.07.12.1c.09.02.19.05.27.09.1,0,.2.01.29.03l.14.03h.24c.34.03.66.2.87.47l.16.21.17.19.15.13c.27.21.44.52.46.86l.06.84s0,.09,0,.14c.12.01.23.04.34.09.3,0,.59.12.81.33l.2.2c.12.11.21.25.27.4.13.13.23.28.29.45h0c.06.06.11.12.15.19,0,0,.14.21.22.32.06.09.1.19.13.28.04.03.08.05.11.09l.06.05c.27.23.42.57.42.93,0,0,0,.01,0,.04l.06.07c.17.19.27.43.29.68.1.14.18.31.22.5.05.23.03.46-.04.67,0,.04,0,.07,0,.11v.35c0,.06,0,.12,0,.18,0,0,0,.01,0,.02l.03.08s.03.1.04.15c.09.16.15.34.16.53v.26s.01.01.01.02v.02c.11.2.14.42.12.65l-.02.19s0,.04,0,.06c-.02.3-.15.58-.37.79-.29.28-.69.39-1.08.3l-5.82-1.28-3.19.47.18,2.74c.04.57-.34,1.09-.89,1.23l-3.26.85c-.37.09-.75.01-1.05-.22-.29-.24-.46-.6-.45-.97l.04-.99-1.31,2.52c-.23.45-.72.7-1.22.63l-6.01-.79-3.15,1.75v1.84c0,.37-.16.71-.45.94l-5.53,4.36,2.06.08c.64.02,1.14.55,1.15,1.19l.03,5.27c0,.26-.08.52-.24.73l-4.68,6.19-.26,1c-.14.53-.62.9-1.15.9ZM89.5,77.89c.12,0,.24.02.36.06l2.79.88,3.54-2.21c.31-.19.68-.23,1.03-.11l4.34,1.52,5.39-.33c.5-.03.94.25,1.15.68l3.19-4.22-.02-3.72-3.05-.12c-.62-.02-1.12-.52-1.15-1.14l-.04-.88c-.02-.38.15-.75.45-.99l6.55-5.17v-1.96c-.01-.43.22-.84.6-1.05l4.11-2.29c.22-.12.48-.18.74-.14l5.57.74,1.46-2.82c.22-.43.69-.68,1.17-.64l1.76.17c.63.06,1.1.6,1.08,1.23l-.03.86.75-.2-.18-2.86c-.04-.62.4-1.17,1.02-1.26l4.49-.67c.14-.02.29-.02.43.01l4.2.92c-.02-.1-.02-.2,0-.31l.02-.2s0-.07.02-.1c-.08-.2-.11-.42-.08-.63-.03-.1-.05-.2-.06-.31-.11-.12-.21-.26-.28-.44-.05-.04-.09-.09-.13-.15l-.16-.22c-.15-.2-.34-.52-.36-.91l-.04-.04s-.04-.04-.06-.06c-.22-.12-.4-.3-.51-.53-.11,0-.22-.02-.33-.06l-.18-.06s-.07-.03-.11-.04h-.12c-.47,0-.89-.27-1.09-.7l-.14-.31c-.12-.26-.14-.56-.06-.84l.17-.55v-.15s-.03-.02-.04-.03l-.12-.13s0,0-.01,0c-.22.03-.45,0-.65-.09-.27.02-.53-.05-.76-.2l-.2-.14c-.14-.09-.25-.21-.34-.35l-.04-.07s-.09-.04-.14-.07c-.06-.04-.25-.14-.59-.5-.04-.05-.08-.1-.12-.15-.13-.08-.24-.16-.26-.18-.21-.15-.36-.36-.44-.6l-.05-.16c-.34,0-.62-.07-.85-.2,0,0,0,0,0,0-.15-.05-.29-.13-.41-.23-.12-.1-.22-.22-.29-.35-.33-.05-.62-.24-.8-.52l-.14-.21c-.28-.07-.53-.23-.72-.44-.08,0-.17.01-.26.01-.05,0-.22.02-.33.04-.41.07-.83-.08-1.1-.39l-.04-.02c-.11-.05-.22-.13-.31-.21-.45.15-.94.02-1.26-.34l-.21-.24-.24-.23c-.09-.02-.18-.04-.27-.07-.17-.06-.34-.17-.52-.32-.1,0-.21-.02-.33-.06-.25-.07-.48-.19-.57-.24-.06-.03-.12-.07-.17-.11l-.22-.18c-.31-.24-.48-.62-.45-1.01-.05-.11-.09-.23-.11-.35-.03-.03-.05-.06-.07-.09-.24-.07-.46-.21-.62-.41l-.11-.14-.09-.07c-.06-.04-.11-.09-.16-.14-.02-.02-.06-.07-.11-.12-.32-.03-.61-.19-.81-.44l-.19-.23-.3-.22c-.18-.13-.31-.3-.4-.5l-.11-.26c-.2-.06-.38-.18-.52-.33l-.26-.28h-.05c-.2-.02-.39-.09-.55-.2-.27-.18-.47-.35-.6-.51-.05-.06-.22-.26-.39-.75l-.07-.19-.04-.04c-.21-.22-.33-.51-.33-.82v-.3l-.03-.28c-.09-.1-.24-.27-.34-.43-.06-.1-.26-.44-.26-.44l-.02-.04s-.08-.05-.12-.07c-.44,0-.84-.25-1.05-.64l-.14-.27s-.03-.06-.04-.09l-.28-.12-.3-.1c-.06-.02-.12-.04-.17-.07l-.27-.14-.1-.03c-.13-.03-.25-.09-.36-.16l-.26-.18c-.11-.07-.2-.16-.28-.26-.24,0-.48-.08-.68-.23h-.01s-.16,0-.16,0c-.09,0-.19-.01-.28-.03l-.24-.06c-.34-.08-.62-.3-.78-.61l-.07-.13-.15-.25c-.1-.16-.15-.34-.16-.53v-.08s-.28-.21-.28-.21c-.08-.06-.16-.14-.22-.22-.13-.17-.27-.36-.31-.4-.12-.14-.34-.45-.49-.68-.09-.14-.16-.29-.19-.45l-.18-.96-.2-.39-.15-.19s-.04,0-.06,0h-.26c-.43,0-.83-.23-1.04-.61l-.14-.26s-.06-.01-.06-.01c-.11-.02-.21-.05-.31-.1l-.24-.12c-.2-.1-.38-.25-.49-.44l-.08-.13-.19-.23c-.08-.1-.14-.21-.19-.33l-.15-.4c-.04-.1-.06-.21-.07-.32-.02-.03-.04-.06-.06-.09-.08-.05-.17-.1-.25-.18-.15-.1-.27-.21-.36-.3-.02-.02-.04-.04-.06-.05h0c-.18-.12-.38-.25-.54-.39-.38-.05-.92-.17-1.2-.26-.05,0-.12-.02-.18-.02-.31-.04-.57-.07-.84-.22-.14-.08-.25-.16-.38-.26l-.09-.07c-.23-.17-.4-.38-.53-.53,0,0-.01-.02-.02-.03-.03-.02-.06-.04-.09-.06l-.18-.04s-.09-.02-.14-.04l-.22-.07c-.1-.03-.19-.08-.28-.14l-.07-.04s-.02-.01-.03-.02l-2.59-1.8c-.1-.07-.18-.15-.26-.24-.06-.07-.16-.22-.23-.39-.01-.03-.09-.16-.13-.24-.09-.1-.25-.31-.34-.61-.1-.18-.24-.45-.25-.8,0,0,0,0,0,0l-.03-.03-.32-.19c-.1-.06-.19-.13-.27-.22l-.3-.33c-.14-.15-.24-.34-.28-.54-.04-.17-.09-.37-.1-.42-.05-.13-.07-.2-.09-.23h-.01c-.18-.27-.35-.55-.4-.9-.01-.1-.02-.18-.02-.26,0,0,0-.01-.01-.02l-.02-.03c-.12-.18-.2-.38-.25-.51-.02-.03-.04-.06-.07-.09-.12-.17-.25-.35-.33-.57-.03-.09-.19-.42-.31-.69l-.23-.53s0-.01,0-.02l-.1-.25-.25-.23s-.08-.08-.12-.13l-.37-.45s-.05-.07-.07-.1l-.17-.27-.26-.17-.34-.2-.59-.22c-.09-.03-.18-.08-.25-.13-.17.08-.35.13-.54.13h-.3c-.24,0-.47-.07-.66-.2l-.54-.36s-.06-.04-.09-.06l-.49-.4c-.06-.05-.12-.11-.17-.17l-.4-.48-9.17-.16c-.06,0-.12,0-.18-.02l-43.24-.74-.57,14.34.44,5.34,3.84,4.53c.23.27.32.62.27.97l-.19,1.13,1.72.19c.57.06,1.02.53,1.06,1.11l.44,6.48.64-.32c.42-.21.93-.16,1.29.14.17.14.29.31.36.5l2.26-.9c.58-.23,1.24.03,1.52.59l.34.7,1.59-.28c.34-.06.69.03.95.25.27.22.43.54.44.88l.03.72.46.39.67.16c.48.12.83.51.9.97l1.51-1.08c.35-.25.82-.29,1.21-.11.29.14.51.39.61.69l2.26-.06,1.07-1.95c.18-.33.51-.56.89-.61.38-.05.75.08,1.02.35l1.99,2.04,2.53-2.72c.23-.24.54-.38.87-.38h2.16s.03.01.05.01l1.96.09c.59.03,1.07.48,1.13,1.06l.22,2.05c.04.35-.08.7-.32.95-.09.1-.2.18-.32.24,0,.13-.03.26-.08.38l-.84,2.13c-.16.42-.55.7-.99.75l.68.77c.36.42.39,1.03.07,1.48l-.83,1.16h.14c.46.01.88.28,1.07.7.19.42.12.91-.18,1.26l-3.96,4.67,1.8,1.56c.16.14.28.31.34.5l.93-.39c.36-.15.77-.12,1.1.09l7.31,4.55c.31.19.52.52.56.89l.98,9.32.5,1.42,2.27.64c.59.17.95.75.85,1.35l-.18,1.11.14.61.83,1.4c.12.21.18.45.17.68l.2-.08c.41-.16.87-.09,1.21.19l.81.67.49-.46c.23-.21.52-.33.82-.33ZM138.83,48.11s0,0,0,0c0,0,0,0,0,0ZM134.84,43.98s0,0,0,0c0,0,0,0,0,0ZM123.89,36.57s0,0,0,0c0,0,0,0,0,0ZM122.94,36.02s0,0,0,0c0,0,0,0,0,0ZM120.2,29.25s0,0,0,0c0,0,0,0,0,0ZM114.89,27.88h0,0ZM106.79,19.51s0,0,0,0c0,0,0,0,0,0ZM106.48,19.32s0,0,0,0c0,0,0,0,0,0ZM106.16,19.01s0,0,0,0c0,0,0,0,0,0ZM106.74,18.97s0,0,0,0c0,0,0,0,0,0ZM104.08,18.19s.05.02.09.03c-.03-.01-.06-.02-.09-.03ZM105.64,16.12s0,0,.02,0c0,0-.01,0-.02,0ZM104.96,15.97s.02,0,.02.01c0,0-.02,0-.02-.01ZM104.1,15.73h0s0,0,0,0ZM100.27,13.33s0,0,0,.01c0,0,0,0,0-.01ZM97.46,8.08h0s0,0,0,0ZM92.22,2.17h0,0Z"/>
      <polygon class="cls-3" points="86.32 88.64 88.85 85.28 83.6 80.13 83.61 77.71 84.77 77.83 83.85 76.27 83.6 75.25 83.83 73.9 80.96 73.09 80.21 70.96 79.22 61.51 71.91 56.96 67.68 58.74 69.39 56.66 66.69 54.33 71.41 48.75 69.01 48.71 71.15 45.7 68.9 43.13 71.25 42.96 72.09 40.83 71.62 39.76 72.74 39.82 72.52 37.77 70.56 37.69 68.41 37.67 65.03 41.31 62.16 38.37 60.76 40.92 56.71 41.02 56.66 40.19 53.68 42.32 53 42.32 53.28 40.48 52.33 40.26 51.26 39.34 51.21 38.1 48.73 38.53 48 37.02 43.79 38.7 44.18 37.24 41.94 38.37 41.37 30.09 38.39 29.77 38.79 27.39 34.69 22.57 34.22 16.78 16.24 15.91 16.14 15.91 15.33 17.39 14.16 19.09 13.89 19.93 13.14 20.45 14.47 20.78 13.07 22.88 13.02 22.94 13.9 23.6 18.83 27.57 18.91 28.7 14.97 28.87 14.85 32.34 10.38 32.12 9.86 37.85 12.28 39.6 12.12 42 14.63 43.06 15.59 43.6 18.63 46.19 18.56 47.59 19.58 47.74 19.38 48.1 20.58 48.17 19.13 49.97 19.62 52.59 22.09 54.82 21.74 55.89 19.75 54.78 19.61 58.88 19.24 68.1 18.61 71.89 21.35 72.38 21.29 74.83 17.61 75.53 18.65 77.41 17.44 78 17.72 83.51 15.02 84.63 16.31 90.17 13.39 91.97 15.05 96.37 14.27 99.3 14.5 102 14.87 104.39 15.48 106.71 15.85 107.89 18.02 111.29 18.1 114.54 19.54 117.29 19.86 119.96 21.04 124.33 20.84 124.48 20.95 124.49 21.97 125.74 24.51 126.27 24.42 125.51 29.56 126.93 30.18 128.11 31.01 127.84 32.71 128.77 34.56 128.88 40.41 121.74 39.85 120.45 42.95 120.67 43.34 116.67 48.57 115.28 48.62 113.86 50.95 113.18 53.3 108.56 55.04 108.04 55.56 109.11 53.36 111.53 53.97 113.07 55.89 113.42 56.35 112.23 63.36 118.27 65.32 114.65 64.83 112.2 67.24 111.74 67.48 110.06 65.11 107.78 64.52 105.82 62.9 104.24 62.94 102.44 64.13 100.71 67.61 101.06 69.19 98.02 69.56 99.64 75.35 102.3 77.69 100.34 77.39 98.01 79.12 97.62 77.77 95.66 80.88 95.57 85.74 98.76 86.24 98.02 86.59 95.92 84.79 95.6 84.89 92.67 86.32 88.64"/>
      <path class="cls-1" d="M34.56,130.08s-.05,0-.07,0l-1.85-.12c-.17-.01-.34-.06-.5-.14l-1.25-.68-.34.11c-.55.18-1.15-.07-1.42-.58l-.38-.72-3.31-.91s-.07.08-.11.12c-.28.26-.68.37-1.05.29l-2.54-.53c-.27-.06-.51-.2-.68-.41l-.8-.98c-.25-.15-.45-.39-.54-.68-.08-.26-.07-.54.03-.78l-1.02-3.79c-.01-.06-.03-.11-.03-.17l-.29-2.45-1.34-2.56c-.08-.16-.13-.34-.13-.52l-.07-2.91-2-3.12c-.06-.09-.1-.19-.13-.29l-.37-1.18s0-.03-.01-.05l-.62-2.32s-.02-.08-.03-.13l-.36-2.39s0-.05,0-.08l-.23-2.71c-.01-.14,0-.27.04-.4l.67-2.55-1.52-4.05c-.2-.53,0-1.14.49-1.44l2.19-1.35-1.09-4.71c-.13-.57.17-1.15.71-1.37l1.92-.8-.24-4.67c-.02-.48.24-.93.67-1.14l.08-.04-.43-.78c-.18-.34-.2-.74-.03-1.08s.48-.59.86-.66l2.73-.52v-.47s-1.72-.3-1.72-.3c-.64-.11-1.08-.73-.97-1.37l.62-3.71.36-9.15.14-4.09c.01-.41.23-.78.58-.99l-.32-.28c-.2-.18-.33-.41-.38-.67l-.48-2.62c-.06-.34.03-.69.24-.96l.27-.34s-.06-.07-.08-.11c-.61-.09-1.05-.63-1.02-1.24l.04-.81-2.51-2.14-.8-.45-2.45-1.04c-.47-.2-.76-.67-.73-1.18l.12-1.73-1.89-1.36c-.34-.25-.53-.66-.49-1.08l.53-5.73c.06-.64.61-1.12,1.25-1.08l3.26.16.08-2.27c.02-.62.52-1.12,1.14-1.15l2.03-.08-3.79-3.05-.86-.65c-.26-.2-.43-.49-.47-.81-.04-.32.06-.65.26-.9h0s.45-.68.45-.68c-.31-.17-.53-.47-.59-.83-.09-.46.11-.93.49-1.2l.41-.29.14-.46c.04-.12.09-.22.16-.32l1.14-1.65.78-1.43c.22-.4.65-.64,1.1-.62l18.07.87c.6.03,1.08.5,1.13,1.09l.45,5.41,3.84,4.53c.23.27.32.62.27.97l-.19,1.13,1.72.19c.57.06,1.02.53,1.06,1.11l.44,6.48.64-.32c.42-.21.93-.16,1.29.14.17.14.29.31.36.5l2.26-.9c.58-.23,1.24.03,1.52.59l.34.7,1.59-.28c.34-.06.69.03.95.25.27.22.43.54.44.88l.03.72.46.39.67.16c.48.12.83.51.9.97l1.51-1.08c.35-.25.82-.29,1.21-.11.29.14.51.39.61.69l2.26-.06,1.07-1.95c.18-.33.51-.56.89-.61.37-.05.75.08,1.02.35l1.99,2.04,2.53-2.72c.23-.24.54-.38.87-.38h2.16s.03.01.05.01l1.96.09c.59.03,1.07.48,1.13,1.06l.22,2.05c.04.35-.08.7-.32.95-.09.1-.2.18-.32.24,0,.13-.03.26-.08.38l-.84,2.13c-.16.42-.55.7-.99.75l.68.77c.36.42.39,1.03.07,1.48l-.83,1.16h.14c.46.01.88.28,1.07.7.19.42.12.91-.18,1.26l-3.96,4.67,1.8,1.56c.16.14.28.31.34.5l.93-.39c.36-.15.77-.12,1.1.09l7.31,4.55c.31.19.52.52.56.89l.98,9.32.5,1.42,2.27.64c.59.17.95.75.85,1.35l-.18,1.11.14.61.83,1.4c.23.39.22.87-.02,1.25-.22.34-.59.54-.98.55v.61s4.89,4.79,4.89,4.79c.43.42.48,1.09.12,1.57l-2.42,3.22-1.3,3.68-.06,1.71.79.14c.64.12,1.08.73.97,1.38l-.36,2.1c-.03.17-.09.33-.19.47l-.5.74c-.37.54-1.1.69-1.64.33l-4.54-2.98-.54.02.11.15c.22.33.27.74.13,1.11s-.46.64-.85.73l-.67.15.16,1.25c.05.4-.11.81-.42,1.07l-2.34,1.96c-.35.3-.85.36-1.26.17l-5.74-2.63-.45.86c-.23.43-.69.68-1.18.63l-2.78-.28-.59.85-.02.93,1.25,1.21c.14.14.25.32.31.51l.5,1.66,2.15,2.06c.28.27.41.65.36,1.03l-.24,1.68c-.07.5-.46.91-.96,1l-1.23.23.26,1.27c.06.27.01.56-.12.81l-1.96,3.62c-.17.32-.48.54-.83.6-.36.06-.72-.03-.99-.27l-5.77-4.98c-.27.32-.7.48-1.12.4l-1.92-.35c-.4-.07-.74-.35-.9-.73l-.33-.82-.53,1.03c-.15.29-.41.51-.73.6l-1.49.43-.02.56c-.02.52-.38.97-.88,1.11l-4.43,1.19-.31,3.17c-.06.64-.63,1.12-1.27,1.07l-1.27-.09c0,.26-.1.52-.27.73l-5.85,7.14c-.23.28-.57.44-.92.44ZM33.05,127.59l.97.06,5-6.1-.27-.62c-.17-.38-.12-.82.12-1.16.24-.34.64-.53,1.06-.5l1.95.13.28-2.84c.05-.5.4-.91.88-1.04l4.38-1.17.02-.54c.02-.52.37-.96.86-1.1l1.83-.53,2.12-4.17c.15-.29.41-.51.72-.6l1.74-.52c.56-.17,1.16.1,1.42.63l.51,1.08c.21.44.13.96-.19,1.32l-1.7,1.87.09.23.3.05.11-.27c.14-.36.45-.63.82-.73.38-.09.77,0,1.07.25l5.88,5.07,1.05-1.94-.41-2.03c-.06-.31,0-.64.18-.9s.45-.45.77-.51l1.58-.3.03-.23-1.93-1.85c-.15-.14-.26-.32-.32-.52l-.5-1.67-1.4-1.36c-.24-.23-.37-.55-.36-.88l.04-1.81c0-.23.08-.46.21-.65l1.19-1.73c.25-.36.67-.56,1.1-.51l2.68.27,1.21-2.32c.23-.44.72-.7,1.21-.63.5.06.9.43,1.01.92l.23,1.04,4.58,2.1,1.26-1.05-.22-1.68c-.08-.61.32-1.18.92-1.32h0s-.35-.51-.35-.51c-.25-.36-.28-.83-.08-1.22s.59-.64,1.03-.65l3.11-.09c.24,0,.49.06.69.2l2.12,1.39c-.04-.13-.06-.26-.06-.4l.1-2.93c0-.12.03-.24.07-.36l1.43-4.03c.04-.11.1-.22.17-.32l1.9-2.53-4.5-4.41c-.23-.22-.36-.53-.36-.85v-2.42c0-.33.14-.65.38-.87-.05-.09-.09-.19-.11-.29l-.24-1.02c-.04-.15-.04-.32-.02-.47l.05-.29-1.84-.52c-.37-.11-.67-.39-.8-.75l-.75-2.13c-.03-.09-.05-.18-.06-.27l-.94-8.87-6.29-3.91-3.66,1.54c-.51.21-1.09.05-1.42-.38-.33-.44-.32-1.05.03-1.47l.97-1.19-1.82-1.57c-.5-.43-.55-1.18-.13-1.67l3.1-3.66c-.4-.04-.75-.29-.93-.65-.2-.4-.16-.87.09-1.23l1.59-2.24-1.63-1.87c-.3-.34-.38-.82-.2-1.24.17-.42.57-.7,1.02-.74l1.6-.12.38-.97-.27-.61c-.17-.38-.13-.82.11-1.16.05-.07.1-.13.16-.18h-.27s-1.61-.02-1.61-.02l-3.02,3.25c-.22.24-.53.38-.86.38-.33,0-.64-.13-.87-.36l-1.74-1.78-.62,1.13c-.2.37-.59.61-1.02.62l-4.06.1c-.23,0-.45-.05-.63-.16l-1.73,1.24c-.2.15-.45.22-.7.22h-.68c-.35,0-.68-.15-.9-.41s-.33-.61-.28-.96l.11-.76c-.14-.05-.27-.12-.38-.22l-1.07-.91c-.22-.19-.37-.45-.41-.74l-1.14.2c-.52.09-1.05-.18-1.28-.66l-.25-.51-3.18,1.27c-.42.17-.9.08-1.24-.22-.1-.09-.18-.19-.24-.29l-.28.14c-.36.18-.78.17-1.13-.03-.35-.2-.57-.56-.6-.96l-.5-7.28-1.98-.22c-.33-.04-.62-.2-.82-.46-.2-.26-.28-.59-.23-.92l.3-1.83-3.73-4.4c-.16-.19-.26-.43-.28-.67l-.39-4.75-16.28-.79-.45.83s-.04.07-.07.11l-1.07,1.55-.06.2c.18.13.32.32.41.53.14.36.1.77-.12,1.1l-.82,1.23,4.93,3.97c.26.21.42.52.44.85l.08,1.13c.02.32-.09.64-.3.88-.21.24-.52.38-.84.4l-2.83.12-.08,2.37c-.01.32-.15.62-.39.84-.24.22-.55.33-.87.31l-3.32-.16-.36,3.91,1.87,1.35c.33.24.52.64.49,1.05l-.11,1.54,1.73.73s.08.04.12.06l.96.54c.06.04.13.08.18.13l3.05,2.59c.28.24.44.6.42.97l-.02.31c.27.05.51.19.68.4h.16c.45.04.84.31,1.02.72.18.41.12.88-.16,1.23l-1.11,1.38.31,1.68,2.18,1.96c.35.32.48.81.33,1.26l-.36,1.08c-.11.34-.37.61-.7.74-.33.13-.7.1-1.01-.07l-.28-.16-.07,2.14-.37,9.23s0,.1-.02.15l-.44,2.62,1.58.28c.58.1,1,.61.99,1.2l-.06,2.46c-.01.56-.42,1.04-.97,1.14l-2.06.39.24.44c.16.29.19.63.09.94s-.32.57-.62.71l-.5.24.24,4.72c.03.5-.27.97-.74,1.16l-1.77.73,1.06,4.56c.12.5-.1,1.02-.54,1.29l-2.08,1.28,1.31,3.48c.09.23.1.48.04.72l-.72,2.72.21,2.46.35,2.28.59,2.23.31,1,2.09,3.27c.12.18.18.4.19.61l.07,2.97,1.31,2.51c.07.13.11.27.13.41l.31,2.58,1.16,4.29s.02.09.03.14l.41.5.81.17c.06-.08.12-.15.2-.22.3-.26.71-.35,1.1-.25l5.14,1.42c.32.09.59.3.74.6l.16.3c.27-.06.56-.01.81.12l1.47.8ZM85.01,96.85l.19.13.02-.09-.21-.04Z"/>
      <path class="cls-8" d="M192.48,105.31s-.17-.17-.22-.19c-.05-.02-.09,0-.15,0-.05,0-.13.05-.16.1,0-.04.02-.08,0-.05-.03.05-.02.13-.08.13s-.22.06-.28.01c-.06-.05-.14-.06-.14-.06l-.16-.05h-.12s-.1.02-.14-.03c-.04-.05-.28-.04-.14-.06l-.38-.16c-.17-.12-.05-.04-.65-.42l-.24-.11-.4-.07s.03-.15,0-.21c-.04-.06-.02-.27-.02-.27l-.26-.13s-.17-.17-.21-.23c-.03-.04-.36,0-.69-.01-.11,0-.18-.13-.18-.13l-.02-.22.14-.17-.03-.26c-.22-.02-.76-.68-1.03-.99l-.08-.15h-.33l-.2-.13-.16-.64-.13-.09c-.42.14-.8-.19-.87-.46l-.18-.03-.32.19c-.07-.03-.43,0-.43,0,0,0-.3-.06-.35-.1-.05-.04-.25-.25-.25-.25,0,0-.11-.16-.24-.16s-.25,0-.31.05c-.06.04-.08.08-.16.08s-.14.1-.24.1-.24-.06-.24-.06c0,0-.27.12-.33.07-.06-.05-.21-.39-.26-.44-.05-.05-.2-.15-.32-.16-.82-.07-.88-.16-1.07-.2-.23-.04-.65-.12-.7-.2-.05-.08-.25-.37-.3-.43-.05-.06-.01-.08-.61-.79-.04-.05-.12-.06-.18-.09-.06-.03-.09-.11-.17-.06-.08.05-.15.01-.21-.02-.03-.01-.19.09-.31.06-.12-.02-.2-.17-.24-.25-.08-.18-.11-.21-.09-.3.02-.1-.02-.21,0-.32.02-.11-.05-.56-.08-.61-.03-.05-.04-.05-.04-.05l-.15.06-.13.06-.23-.06s-.18-.21-.28-.34c-.1-.14-.21.03-.21.03h-.18s-.39-.24-.39-.24l-.22-.16s-.56-.01-.67-.07c-.11-.06-.46.08-.46.08,0,0-.31-.08-.4-.09-.08,0-.31-.03-.37-.03s-.23-.08-.28-.09c-.05,0-.32-.06-.32-.06l-.21-.19s-.16-.14-.28-.14-.14,0-.39,0-.73-.07-.73-.07l-.35-.07-.33-.16s-.41-.14-.46-.17c-.05-.03-.38-.18-.44-.17-.06,0-.2-.07-.2-.07l-.7-.31s-.42-.38-.47-.4c-.05-.02-.15-.25-.2-.3-.05-.05-.39-.16-.39-.16h-.21l-.25-.21-.29-.45-.43-.37h-.31s-.26-.1-.26-.1l-.11-.15-.19-.05-.11.04-.47-.29s-.09-.08-.16-.16c-.02-.02-.09.03-.13,0-.11-.08-.23-.23-.23-.23,0,0,0-.15-.06-.24-.06-.09-.15-.2-.2-.25-.05-.06-.2-.22-.2-.22l-.06-.43-.16-.21s-.1-.08-.14-.2c-.04-.12-.18-.22-.18-.22,0,0-.06-.02-.18-.1-.12-.08-.26-.18-.26-.18l-.2-.2v-.28s.13-.07.13-.07c0,0,.07-.11.07-.23s0-.38,0-.38l-.17.03-.22.1s-.08.1-.16,0c-.08-.1-.08-.2-.08-.2l-.29-.48-.18-.15-.17-.12-.24-.08-.19-.2-.19-.15-.29-.04-.31-.06s-.16-.07-.26-.1c-.1-.04-.16-.07-.16-.07h-.24s-.25.07-.25.07h-.26s-.22.1-.22.1h-.17s-.17-.14-.17-.14l-.23-.2-.14-.07-.18-.13-.35-.27h-.14s-.32-.02-.32-.02l-.16-.09-.02-.19-.13-.17-.11-.16-.14-.42-.14-.22-.13-.14-.29-.16-.41-.28-.41-.29s-.23-.16-.33-.22c-.1-.06-.21-.16-.31-.16s-.23-.12-.23-.12l-.05-.22-.22-.24c.4.44-.09-.11-.19-.14l-.24-.23-.55.07-.24-.34-.22-.57-.18-.25-.32-.2-.09-.36-.14-.17v-.24s.03-.24.03-.24l-.09-.14-.03-.49-.19-.17v-.42s-.26-.18-.26-.29.02-.21.02-.21l.05-.08-.2-.18-.2-.12s-.03-.16-.03-.3.14-.18.12-.27c-.02-.1-.05-.33-.05-.33,0,0-.21-.09-.25-.21-.04-.12-.07-.26-.07-.26l-.33-.29-.12-.23s-.07-.12-.11-.18c-.03-.05-.01-.11-.06-.14-.1-.06-.35-.27-.35-.27l-.02-.06-.03-.19-.17-.03-.17-.13.05-.3-.11-.12-.02-.26-.22-.24v-.39s-.09-.21-.09-.21l-.34-.14-.05-.22-.18-.22s-.23-.05-.23-.15.1-.2-.02-.27c-.05-.03-.21-.08-.25-.16-.06-.1,0-.21,0-.21,0,0-.28,0-.32-.1-.04-.1-.14-.46-.14-.46l-.11-.21.07-.12v-.27c0-.1.09-.22.05-.32-.04-.1-.09-.22-.09-.22-.33-.83-.32-.87-.22-1.24l-.1-.16c-.06-.16-.05-.32.07-.66.02-.05.11-.13-.03-.21-.14-.08-.29-.17-.29-.17v-.38s.1-.24.1-.24c0,0-.02-.1-.02-.22,0-.04-.04-.08-.07-.14-.05-.12-.04-.3-.04-.3v-.22s.05-.15.05-.15c-.04.02.03-.08.1-.12.04-.02.13,0,.15-.02.05-.05.24-.46.24-.46v-.42s-.12-.2-.12-.2l.05-.29-.03-.41s-.07-.03-.05-.13c.02-.1-.14-.48-.04-.58.1-.1.24-.1.26-.2.01-.05-.04-.16-.03-.27,0-.1.07-.19.07-.26,0-.14.05-.27.05-.37,0-.2-.1-.5-.16-.58l-.33-.77-.24-.63-.02-.12.1-.08.02-.17-.2-.08-.04-.09-.22-.33-.28-.37-.05-.05-.25-.03s-.19.1-.23,0c-.04-.1-.15-.06-.15-.06.04-.08.02-.18,0-.23-.05-.08-.13-.12-.23-.12l-.07-.15v-.63s0-.38,0-.38h-.32s-.16-.06-.16-.06c-.14-.08,0-.29,0-.29l-.33-.17-.09-.2-.16-.19-.24-.14v-.08s-.23.04-.23.04l-.12-.09.06-.15-.02-.14-.37-.27v-.28s.2-.08.2-.08l.08.03-.02-.27-.14-.12s.06-.2-.05-.2c-.03,0-.11,0-.15.03-.11.06-.24.03-.24.03l-.29-.17-.21-.21-.37-.32v-.11s.17-.19.17-.19c0,0-.05-.29-.07-.4l-6.04-1.32-4.49.67.25,3.84-3.26.85.09-2.47-1.76-.17-1.85,3.57-6.4-.84-4.11,2.29v2.54s-6.99,5.53-6.99,5.53l.04.88,4.19.16.03,5.26-4.82,6.38-.32,1.23-2.39,3.76-.42,5.39-2.23.07.5,9.26-5.96.65.15,2.23,1.1,1.92-.99.08,1.27,3.04,1.54.39.21,2.39,5.86,3.49.92,1.39-.4,1.27,6.19.67.75,4.36.95-1.06,1.49.62-.39.37.66-.05.02-1.59,2.66,1.86.3-.22.95-2.23,2.62-1.11-.03-1.45,1.67-.48,2.05-2.1.85-1.56,2.38-.28,1.46,1.07.96-.99h1.38l2.02,1.69,5.23-1.24-.26,1.41,3.11-.53,1.07,1.02.88.32,1.28-.34.44,1.22,1.76-.21,5.02-.32,2.78,2.73-1.13,1.77,3.86,1.75,2.39-4.44,1.34.76.33-.64.81.92.91-.94,2.14,2.58-.24,1.24,1.21,1.52,1.43-1.68,1.65.02.02,1.01,2.8-.85,3.91,1.62,2.3-.51.23-.49.88-1.91.86.23.18-.32-.79-.23.8-1.83.76.62.35-.57.56.55,2.53-4.4,1.35-2.2.75-1.11.25.33.06-.5-.19-.82.27-.22,1.34-1.62,1.24-2.25.65-.97-.03-.03-.05-.11Z"/>
      <path class="cls-1" d="M178.19,124.89c-.16,0-.31-.03-.46-.09l-3.52-1.45-2.39.73c-.36.11-.74.04-1.05-.18-.25-.18-.42-.45-.47-.75l-1.03,1.2c-.23.27-.57.43-.93.42-.36,0-.69-.17-.91-.45l-1.21-1.52c-.22-.27-.3-.63-.24-.97l.13-.69-.93-1.12c-.23.23-.55.35-.87.35-.29,0-.57-.12-.78-.32-.31.09-.63.05-.91-.11l-.28-.16-1.81,3.37c-.3.55-.97.78-1.54.52l-3.86-1.75c-.32-.14-.55-.42-.65-.75-.1-.33-.05-.69.14-.98l.61-.95-1.71-1.68-4.46.29-1.73.2c-.55.06-1.07-.26-1.26-.78l-.07-.19-.22.06c-.24.06-.49.05-.72-.03l-.88-.32c-.15-.06-.29-.14-.41-.26l-.63-.6-2.52.43c-.38.07-.78-.06-1.05-.34-.18-.19-.3-.42-.33-.67l-3.51.83c-.37.09-.75,0-1.04-.24l-1.69-1.41h-.44l-.6.63c-.41.43-1.08.49-1.56.14l-1.09-.79-1.3.15-.56,1.02c-.05.1-.12.18-.19.26l-2.05,2.1c-.14.15-.33.26-.53.31l-.79.23v.53c.02.49-.26.94-.72,1.13l-2.18.92-.76,1.78c-.08.2-.22.37-.39.49l-.3.22c-.41.3-.97.31-1.39.02l-.95-.66c-.19.34-.55.58-.96.61l-.66.05c-.43.03-.83-.17-1.07-.52l-.17.19c-.31.34-.78.48-1.22.35-.44-.13-.77-.49-.85-.94l-.6-3.47-5.3-.57c-.36-.04-.67-.23-.87-.53-.2-.3-.25-.67-.14-1.01l.23-.73-.45-.69-5.62-3.35c-.33-.2-.55-.54-.58-.92l-.13-1.54-.72-.18c-.37-.09-.67-.35-.81-.7l-1.27-3.04c-.15-.35-.12-.76.08-1.08.05-.09.11-.16.18-.23l-.32-.55c-.09-.16-.14-.33-.16-.52l-.15-2.23c-.04-.64.43-1.2,1.06-1.26l4.84-.53-.44-8.13c-.02-.32.1-.64.31-.87.22-.24.52-.38.84-.39l1.17-.04.34-4.32c.02-.19.08-.38.18-.55l2.29-3.6.27-1.05c.04-.15.11-.3.2-.42l4.58-6.05-.02-3.72-3.05-.12c-.62-.02-1.12-.52-1.15-1.14l-.04-.88c-.02-.38.15-.75.45-.99l6.55-5.17v-1.96c-.01-.43.22-.84.6-1.05l4.11-2.29c.22-.12.48-.17.74-.14l5.57.74,1.46-2.82c.22-.43.69-.68,1.17-.64l1.76.17c.63.06,1.1.6,1.08,1.23l-.03.86.75-.2-.18-2.86c-.04-.62.4-1.17,1.02-1.26l4.49-.67c.14-.02.29-.02.43.01l6.04,1.32c.47.1.84.48.92.96.02.09.05.28.06.37.37.02.7.2.92.49.08.11.15.23.19.36.11.17.18.36.19.56l.02.27s0,.09,0,.14c.04.03.07.07.1.1.1.07.19.14.26.24l.16.19s.03.04.05.06h0c.15.08.28.19.39.32.43.18.74.59.74,1.09v.38s0,.02,0,.03v.04c.22.05.42.15.58.31l.05.05s.08.09.12.14l.28.37s.03.04.04.06l.12.18c.37.24.58.67.53,1.11l-.02.17s0,.03,0,.05l.09.23.3.69c.17.31.28.76.28,1.11,0,.16-.03.29-.04.38,0,.01,0,.02,0,.03,0,.12-.02.23-.05.31.01.11.02.25-.02.41-.03.13-.07.27-.16.42.01.05.02.1.02.15l.03.41c0,.06,0,.12,0,.18.05.13.07.27.07.4v.42c0,.18-.04.35-.11.51-.17.36-.26.53-.34.64.02.08.03.18.03.28,0,.01,0,.03,0,.03.02.1.03.2.02.29.1.13.17.27.22.43.06.2.09.5-.05.85.1.24.11.51.04.76.05.14.14.37.18.48,0,.02.05.12.08.2.16.39.09.74.04.94v.04c.13.09.24.22.33.36.03.04.05.09.07.14.14.14.27.31.34.52l.17.2s.04.05.05.07c.24.14.43.36.53.62l.08.22c.04.11.07.23.07.34.11.15.19.33.22.52.03.06.06.12.08.18.12.12.21.25.27.41.15.11.34.3.45.61.02.03.03.05.03.05.02.03.04.07.05.1v.03s.17.14.17.14c.14.13.25.29.32.46.22.19.35.46.39.76,0,0,.02.16.03.23.02.08.03.18.03.29.28.29.38.7.29,1.08.25.21.4.52.41.84v.2c.1.19.13.4.11.62v.02s.03.07.04.11c.1.08.2.17.27.28l.18.25c.05.08.1.16.13.24l.03.09c.26.03.5.14.69.32l.16.15s.09.07.14.11c.07.05.14.11.2.18l.22.24s.07.09.11.14c.08.05.15.09.19.12l.02.02c.13.08.33.21.39.25l.78.53.24.13c.1.06.2.13.28.21l.13.14c.06.07.12.14.17.22l.13.22c.05.08.08.16.11.24l.09.25c.19.03.37.11.52.23l.44.33.06.03c.05.03.11.06.16.1.05,0,.1,0,.15,0h.06s.06-.01.06-.01c.12-.03.24-.05.36-.05h.24c.2.01.35.04.52.14,0,0,.02,0,.03.01.05.02.12.05.17.07l.16.03.27.04c.2.03.4.12.56.24l.19.15s.08.06.11.1c.1.04.19.09.28.15l.17.12s.05.04.07.06l.18.15c.09.07.16.16.23.26.25.02.49.11.68.27.26.22.42.54.43.89,0,0,0,.29,0,.42,0,.04,0,.08,0,.12.13.1.33.29.47.56.02.02.04.04.05.07l.16.21c.12.16.2.36.23.56v.07c.06.06.17.19.26.32.04.05.07.1.09.16.11.07.18.15.22.19,0,0,0,0,0,0l.05.03s.07.01.1.02l.19.05c.16.04.3.11.43.21.27,0,.53.11.74.29l.43.37c.08.07.16.16.22.25l.1.16s.02,0,.03,0c.49.16.68.28.83.43.12.11.19.23.25.33.07.06.15.13.25.22l.52.23c.27.05.53.17.68.25.07.03.2.07.32.11.05.02.1.04.15.06l.18.09.17.03c.21.03.46.06.54.06.18,0,.26,0,.32,0,.02,0,.04,0,.06,0,.47,0,.85.25,1.04.4h.01c.1.02.18.05.25.08.13,0,.27.02.3.03.03,0,.08,0,.2.04.32-.08.6-.07.86.01.09,0,.24.02.34.02.24,0,.48.09.67.23l.13.09s.04,0,.06,0c.34-.01.66.12.91.35h0c.18,0,.37.04.53.13.28.14.43.35.52.49.14.22.22.57.25.89.14.03.28.09.42.19.14.06.33.17.5.38.43.52.57.72.66.85.03.04.06.08.09.13.06.01.12.02.15.03.14.03.23.06.3.08.08.03.2.06.66.1.53.05.93.39,1.03.48.26-.1.52-.12.73-.12.49,0,.84.25,1.04.46.23-.12.49-.16.74-.12l.18.03c.3.05.57.21.75.45.2.01.4.08.58.19l.14.09c.24.16.42.4.49.67.25.1.46.29.6.53l.05.07c.12.13.37.43.51.56.32.14.56.41.66.75.2.06.4.18.56.39l.06.03c.27.13.47.36.58.62l.08.04s.09.04.13.07c.44.28.51.32.57.37l.27.11s.02,0,.02.01h.02c.06,0,.11.01.16.03.04-.01.07-.02.11-.03.09-.03.18-.06.27-.07.09-.02.4-.08.77.06.22.09.4.22.65.48.08.09.15.19.21.3.27.4.28.93,0,1.34l-.62.92-1.21,2.2c-.04.07-.08.13-.13.19l-1.21,1.47.04.17c.03.13.04.27.02.4l-.06.5c-.06.48-.4.88-.86,1.01-.05.01-.1.02-.15.03l-.17.25-1.33,2.17-2.52,4.39c-.18.32-.5.54-.87.59-.2.03-.41,0-.6-.07-.03.01-.06.03-.09.04.08.29.04.6-.11.87l-.18.32c-.24.45-.75.69-1.24.61l-.69,1.5c-.16.34-.46.59-.83.67l-2.3.51c-.09.02-.17.03-.26.03ZM174.28,120.88c.16,0,.31.03.46.09l3.56,1.47,1.35-.3.86-1.87c.07-.14.16-.27.27-.37l.77-1.76c.15-.34.45-.6.81-.68.3-.07.62-.02.88.13.11-.05.23-.09.36-.1.11-.01.22-.01.33,0l1.88-3.27s.01-.02.02-.03l1.35-2.2s.02-.03.03-.04l.72-1.07-.02-.1c-.1-.44.06-.89.4-1.18l.18-.15,1.19-1.45.93-1.68s-.04-.02-.06-.03c-.14-.04-.26-.1-.37-.17l-.13-.05c-.08-.03-.15-.07-.21-.11l-.08-.05c-.07-.05-.09-.06-.48-.31l-.03-.02-.25-.05c-.32-.06-.6-.24-.78-.51-.07-.1-.12-.2-.15-.31-.04,0-.08,0-.12,0-.57-.04-.97-.41-1.15-.75-.08-.15-.13-.31-.14-.48l-.02-.22s0-.02,0-.02c-.14-.14-.28-.3-.43-.48-.13-.03-.26-.09-.38-.17l-.2-.13c-.22-.15-.38-.36-.47-.61-.09-.03-.19-.08-.28-.13-.05-.03-.11-.06-.16-.1-.1,0-.19,0-.29-.01-.05,0-.12,0-.16,0-.11,0-.22,0-.32-.02-.41-.09-.63-.17-.83-.32,0,0-.01,0-.02-.01-.13.05-.28.08-.46.08-.07,0-.14,0-.2-.01-.43.09-.8.01-1.12-.24-.14-.12-.25-.25-.33-.39-.41-.05-.62-.11-.8-.17h-.02c-.61-.12-1.13-.23-1.46-.73-.05-.08-.18-.27-.22-.33-.06-.08-.1-.14-.12-.18-.01-.02-.06-.09-.22-.29-.12.01-.27.02-.42-.01-.28-.05-.79-.24-1.11-.93l-.03-.07c-.06-.12-.16-.33-.17-.62-.09-.05-.17-.1-.24-.17-.18-.02-.34-.08-.49-.17l-.39-.24c-.13,0-.24-.02-.33-.04-.22.07-.46.09-.68.03,0,0-.18-.05-.27-.06-.06,0-.17-.02-.23-.02-.22,0-.4-.07-.55-.12h0s-.25-.05-.25-.05c-.21-.04-.4-.13-.56-.27l-.04-.04s-.03,0-.05,0c-.31,0-.77-.06-.91-.08-.02,0-.03,0-.05,0l-.35-.07c-.11-.02-.21-.05-.31-.1l-.26-.13c-.4-.13-.5-.18-.57-.22-.02-.01-.06-.03-.09-.04-.17-.03-.34-.09-.52-.18l-.66-.29c-.12-.05-.22-.12-.32-.21-.12-.11-.26-.23-.32-.29-.12-.08-.22-.18-.29-.27-.22-.03-.42-.12-.6-.26l-.25-.21c-.1-.08-.18-.17-.25-.28l-.18-.29c-.08-.01-.16-.03-.24-.06l-.26-.09c-.07-.03-.15-.06-.21-.1-.15-.03-.3-.08-.43-.17l-.47-.29s-.04-.03-.06-.04c-.12-.04-.21-.1-.27-.14-.24-.16-.43-.4-.5-.5-.09-.13-.16-.27-.2-.42,0,0,0,0,0,0-.05-.05-.18-.2-.18-.2-.17-.18-.27-.41-.3-.65v-.1c-.06-.06-.11-.12-.16-.2,0,0-.02-.01-.02-.02-.16-.1-.31-.22-.34-.24-.03-.03-.07-.06-.1-.09l-.2-.2c-.23-.22-.36-.52-.37-.83-.03-.03-.06-.06-.08-.09-.14-.17-.23-.34-.28-.5l-.09-.14h-.04c-.19-.07-.36-.18-.5-.33l-.04-.04-.29-.06c-.08-.02-.16-.04-.24-.07,0,0-.07-.03-.14-.06-.1.03-.2.04-.31.04-.18.08-.38.12-.58.1h-.17c-.23-.03-.45-.12-.64-.26l-.17-.13s-.04-.03-.06-.05l-.13-.11c-.05-.03-.1-.06-.14-.09l-.18-.13s-.02-.01-.03-.02l-.05-.04h-.11c-.19-.02-.38-.07-.55-.18l-.16-.09c-.28-.17-.47-.44-.54-.75l-.07-.11c-.06-.09-.12-.19-.15-.3l-.08-.24-.06-.03s-.07-.04-.1-.06l-.84-.58h0s-.17-.12-.25-.16c-.03-.02-.06-.04-.09-.06-.3-.09-.53-.26-.66-.37-.14-.13-.25-.28-.31-.46-.43.05-.85-.14-1.1-.49l-.24-.34c-.06-.08-.11-.17-.14-.26l-.15-.39-.08-.05c-.26-.16-.45-.42-.53-.71l-.03-.12c-.16-.21-.24-.46-.24-.72v-.24c-.03-.1-.05-.21-.06-.31v-.03c-.13-.18-.21-.39-.22-.61-.11-.15-.19-.32-.24-.52-.17-.17-.29-.38-.34-.62-.01-.07-.06-.3-.06-.54,0-.05,0-.11,0-.16-.05-.08-.09-.17-.13-.27l-.07-.06c-.11-.1-.2-.22-.27-.36l-.09-.18s-.05-.08-.07-.11c0,0,0,0,0,0-.06-.05-.12-.1-.18-.15-.1-.09-.18-.19-.25-.3l-.08-.06c-.31-.24-.49-.61-.48-1-.01-.04-.02-.08-.03-.12-.14-.17-.22-.36-.26-.57-.15-.12-.27-.28-.35-.46-.23-.16-.4-.39-.49-.64-.04-.04-.08-.09-.12-.14-.2-.14-.35-.33-.45-.56-.02-.04-.06-.15-.15-.49l-.05-.11c-.14-.29-.16-.62-.06-.92,0-.07,0-.13.01-.19-.24-.62-.36-.97-.32-1.41-.08-.24-.09-.47-.07-.68-.14-.2-.22-.44-.22-.69v-.38c0-.11.01-.22.04-.32-.07-.24-.07-.46-.07-.6v-.21c0-.12.02-.23.06-.34.04-.27.18-.53.4-.74-.04-.16-.05-.32-.02-.48l.02-.14c-.05-.14-.08-.28-.08-.43-.06-.26-.19-.88.22-1.38.02-.08.04-.15.06-.2,0-.06.01-.11.02-.15-.02-.03-.04-.07-.05-.11l-.33-.77s-.01-.04-.02-.05l-.24-.63c-.03-.08-.05-.16-.06-.24l-.02-.12s0-.04,0-.06l-.06-.09c-.09-.01-.18-.03-.27-.07-.09-.03-.18-.08-.26-.13-.16-.07-.3-.17-.42-.31-.08-.09-.14-.19-.19-.3-.09-.09-.17-.19-.22-.31l-.07-.15c-.08-.17-.13-.36-.13-.54v-.1c-.2-.14-.35-.34-.44-.56-.09-.08-.16-.18-.22-.28-.14-.04-.28-.1-.4-.19l-.12-.09c-.22-.17-.37-.4-.44-.65-.23-.22-.36-.52-.36-.84h-.02c-.09-.06-.17-.13-.24-.2l-.19-.18-.34-.3c-.2-.17-.33-.4-.38-.66l-4.81-1.05-3.19.47.18,2.74c.04.57-.34,1.09-.89,1.23l-3.26.85c-.37.09-.75.01-1.05-.22-.29-.24-.46-.6-.45-.97l.04-.99-1.31,2.52c-.23.45-.72.7-1.22.63l-6.01-.79-3.15,1.75v1.84c0,.37-.16.71-.45.94l-5.53,4.36,2.06.08c.64.02,1.14.55,1.15,1.19l.03,5.27c0,.26-.08.52-.24.73l-4.68,6.19-.26,1c-.03.12-.08.24-.15.34l-2.23,3.51-.4,5.09c-.05.61-.54,1.08-1.15,1.1l-1.01.03.44,8.04c.03.63-.43,1.18-1.06,1.25l-4.82.53.05.81.97,1.68c.2.36.21.79.02,1.15-.09.17-.22.31-.37.42l.47,1.12.96.24c.49.12.86.55.9,1.06l.15,1.78,5.33,3.18c.15.09.29.22.38.37l.92,1.39c.18.26.24.59.17.89l4.76.51c.53.06.96.46,1.05.98l.4,2.31c.2-.02.4,0,.59.09l.19.08c.1-.29.3-.54.58-.68.39-.2.87-.17,1.23.08l1.61,1.13.51-1.2c.12-.28.35-.51.63-.63l1.88-.8v-.64c-.03-.54.33-1.02.85-1.17l1.37-.39,1.71-1.76.77-1.42c.19-.34.52-.57.91-.61l2.37-.28c.3-.03.6.04.84.22l.62.46.23-.24c.22-.23.54-.37.86-.37h1.38c.28,0,.55.1.76.28l1.56,1.3,4.65-1.1c.39-.09.81.02,1.1.3.23.22.36.51.37.81l1.45-.25c.37-.06.75.05,1.02.31l.89.85.29.11.91-.25c.6-.16,1.22.16,1.43.75l.12.33.82-.1s.04,0,.06,0l5.02-.32c.34-.02.67.1.91.34l2.78,2.73c.4.4.47,1.02.17,1.49l-.39.61,1.59.72,1.86-3.46c.15-.28.41-.49.72-.58.31-.09.64-.05.92.11l.36.2c.17-.13.37-.21.58-.24.37-.04.73.08.99.35h.01c.24-.25.56-.39.9-.37.34.01.66.17.87.43l2.14,2.58c.23.27.32.64.25.99l-.12.6.44-.51c.23-.27.57-.43.92-.42l1.65.02c.45,0,.85.27,1.04.64l1.41-.43c.11-.03.23-.05.35-.05ZM192.93,105.91h0,0ZM188.22,104.83s0,0,0,0c0,0,0,0,0,0ZM184.18,101.53s0,0,0,0c0,0,0,0,0,0ZM184.18,101.53s0,0,0,0c0,0,0,0,0,0ZM186.29,99.98s0,0,0,0c0,0,0,0,0,0ZM178.52,99.48s0,0,.01.01c0,0,0,0-.01-.01ZM180.34,97.93s.03.04.05.06c-.01-.02-.03-.04-.05-.06ZM178.69,96.91l-.39.86.41-.85s0,0-.01-.01ZM178.8,97.5s0,0,0,0c0,0,0,0,0,0ZM178.81,97.16s0,0,0,0c0,0,0,0,0,0h0ZM177.87,96.74s0,0-.01,0c0,0,0,0,.01,0ZM169.87,95.6s0,0,.01,0c0,0,0,0-.01,0ZM168.17,94.71s.04.02.06.02c-.02,0-.04-.02-.06-.02ZM175.58,94.48s.01,0,.02,0c0,0-.01,0-.02,0ZM173.84,94.32s0,0,.01,0c0,0,0,0-.01,0h0ZM171.04,93.52s.01,0,.02.01c0,0-.01,0-.02-.01ZM170.41,93.29s0,0,0,0c0,0,0,0,0,0ZM169.84,93.22h0c.07-.01.15-.01.22-.01-.07,0-.14,0-.22.01ZM162.97,90.05h0s0,0,0,0ZM164.97,88.9s.03.02.04.03c-.02-.01-.03-.02-.04-.03ZM152.53,78.59l-.19.26h.37s.08-.11.08-.11l-.27-.16ZM152.63,78.45l.36.07.14-.16.16.13c-.02-.34-.19-.56-.25-.62l-.4.57ZM149.08,64.55s0,.01,0,.02c0,0,0-.01,0-.02ZM148.43,63.35h0,0ZM149.36,63.02h0s0,0,0,0ZM147.07,62.76s0,0,0,0c0,0,0,0,0,0ZM147.41,58.87s0,0,0,0c0,0,0,0,0,0Z"/>
      <polygon class="cls-7" points="110.95 132.08 106.6 132.38 105.69 133.07 104.38 135.07 103.78 137.3 100.67 137.07 100.02 138.09 102.65 138.64 104.25 141.24 103.4 141.87 105.22 144.7 108.66 146.85 110.07 145.51 109.62 148.37 108.36 150.63 110.8 151.94 111.16 153.26 112.21 152.15 119.52 156.16 122.35 162.46 121.53 165.11 125.77 166.04 126.65 163.71 129.94 166.47 131.83 165.38 135.65 165.48 137.39 163.19 139.87 162.67 141.59 164.1 142.39 163.5 141.6 162.23 143.8 161.68 149.09 163.3 150.19 161.89 151.86 163.03 157.6 158.03 159.92 160.06 164.05 158.98 173.18 159.31 173.24 157.17 172.39 152.2 170.79 149.12 171.92 148.2 170.19 147.86 170.32 143.26 171.25 144.34 171.24 143.69 171.66 143.74 172.13 144.74 172.34 144.7 172.76 143.47 171.34 143.01 171.24 142.72 175.42 134.19 180.49 123.18 178.19 123.69 174.28 122.07 171.48 122.92 171.46 121.91 169.81 121.89 168.38 123.57 167.17 122.04 167.41 120.8 165.26 118.22 164.35 119.16 163.54 118.24 163.21 118.88 161.87 118.12 159.48 122.56 155.62 120.81 156.75 119.04 153.96 116.31 148.94 116.63 147.18 116.84 146.74 115.62 145.46 115.96 144.58 115.64 143.51 114.62 140.41 115.15 140.67 113.74 135.44 114.98 133.42 113.3 132.03 113.3 131.08 114.29 129.61 113.22 127.24 113.5 126.39 115.06 124.34 117.16 122.67 117.64 122.7 119.09 120.08 120.2 119.13 122.43 118.83 122.65 116.17 120.79 116.16 122.38 115.49 122.43 115.89 122.06 114.39 121.44 113.44 122.49 111.64 122.45 113.58 124.75 112.06 126 112.89 130.2 111.26 129.96 110.95 132.08"/>
      <path class="cls-1" d="M129.94,167.67c-.27,0-.55-.09-.77-.28l-2-1.68-.28.75c-.21.55-.79.87-1.37.74l-4.24-.93c-.33-.07-.61-.28-.78-.56-.17-.29-.21-.63-.11-.95l.69-2.22-2.48-5.53-6.15-3.37-.42.44c-.3.31-.74.44-1.16.33-.42-.11-.75-.43-.86-.85l-.22-.82-1.99-1.07c-.28-.15-.49-.41-.58-.72s-.05-.64.1-.92l1.13-2.02c-.15-.03-.29-.08-.42-.16l-3.44-2.15c-.15-.09-.28-.22-.37-.37l-1.82-2.84c-.33-.52-.22-1.2.26-1.58l-.76-1.23-2.13-.44c-.38-.08-.7-.34-.86-.71s-.12-.77.09-1.11l.65-1.02c.24-.37.66-.58,1.09-.55l2.13.16.34-1.27c.03-.12.08-.24.15-.35l1.31-2c.07-.11.17-.21.28-.3l.91-.69c.19-.14.41-.22.64-.24l3.4-.24.18-1.17c.1-.63.68-1.08,1.31-1.01l-.5-2.55c-.08-.43.08-.87.42-1.15l.58-.48-1.16-1.38c-.3-.36-.37-.86-.16-1.29.2-.42.64-.68,1.11-.68l1.25.03.58-.65c.34-.38.88-.5,1.35-.3l.19.08c.1-.29.3-.54.58-.68.39-.2.87-.17,1.23.08l1.61,1.13.51-1.2c.12-.28.35-.51.63-.63l1.88-.8v-.64c-.03-.54.33-1.02.85-1.17l1.37-.39,1.71-1.76.77-1.42c.19-.34.52-.57.91-.61l2.37-.28c.3-.03.6.04.84.22l.62.46.23-.24c.22-.23.54-.37.86-.37h1.38c.28,0,.55.1.76.28l1.56,1.3,4.65-1.1c.39-.09.81.02,1.1.3.23.22.36.51.37.81l1.45-.25c.37-.06.75.05,1.02.31l.89.85.29.11.91-.25c.6-.16,1.22.16,1.43.75l.12.33.82-.1s.04,0,.06,0l5.02-.32c.34-.02.67.1.91.34l2.78,2.73c.4.4.47,1.02.17,1.49l-.39.61,1.59.72,1.86-3.46c.15-.28.41-.49.72-.58.31-.09.64-.05.92.11l.36.2c.17-.13.37-.21.58-.24.37-.04.73.08.99.35h.01c.24-.25.56-.39.9-.37.34.01.66.17.87.43l2.14,2.58c.23.27.32.64.25.99l-.12.6.44-.51c.23-.27.56-.42.91-.42,0,0,.01,0,.02,0l1.65.02c.45,0,.85.27,1.04.64l1.41-.43c.26-.08.55-.07.8.04l3.56,1.47,1.93-.43c.44-.1.9.06,1.19.42.28.35.35.84.16,1.25l-5.07,11.01s0,.02-.01.03l-3.69,7.51.33.11c.3.1.56.32.7.6.14.29.16.62.06.92l-.42,1.22c-.14.4-.48.7-.9.78l-.22.04c-.33.06-.65-.01-.91-.19l-.03,1.17.74.15c.45.09.81.43.93.88.11.45-.04.92-.4,1.21l-.38.31,1.15,2.22c.06.11.1.23.12.35l.85,4.97c.01.08.02.16.02.24l-.06,2.14c0,.32-.14.62-.38.84-.23.22-.54.34-.86.32l-8.96-.32-3.97,1.03c-.38.1-.79,0-1.09-.26l-1.54-1.34-4.95,4.31c-.41.36-1.01.39-1.45.09l-.75-.51-.42.53c-.3.39-.82.55-1.29.4l-4.97-1.52-.3.07c.24.51.09,1.12-.37,1.46l-.81.6c-.44.33-1.05.31-1.47-.04l-1.27-1.06-1.48.31-1.47,1.93c-.23.3-.59.48-.98.47l-3.48-.09-1.6.92c-.19.11-.39.16-.6.16ZM126.65,162.52c.28,0,.55.1.77.28l2.65,2.22,1.17-.67c.19-.11.41-.16.63-.16l3.2.08,1.37-1.8c.17-.23.42-.39.7-.44l2.48-.52c.32-.07.65,0,.92.18.16-.3.44-.52.77-.61l2.21-.55c.21-.05.43-.05.64.02l4.5,1.38.6-.76c.39-.49,1.09-.6,1.61-.25l.91.62,5.04-4.39c.45-.39,1.12-.39,1.57,0l1.85,1.61,3.53-.92c.11-.03.23-.04.34-.04l7.93.29.02-.82-.8-4.67-1.51-2.91c-.13-.24-.16-.51-.12-.77-.39-.21-.64-.62-.62-1.08l.13-4.6c.01-.49.33-.93.79-1.09.1-.04.2-.06.31-.07l4.12-8.39,4.05-8.81c-.22.04-.46.01-.67-.07l-3.52-1.45-2.39.73c-.36.11-.74.04-1.05-.18-.25-.18-.42-.45-.47-.75l-1.03,1.2c-.23.27-.58.43-.93.42-.36,0-.69-.17-.91-.45l-1.21-1.52c-.22-.27-.3-.63-.24-.97l.13-.69-.93-1.12c-.23.23-.55.35-.87.35-.29,0-.57-.12-.78-.32-.31.09-.63.05-.91-.11l-.28-.16-1.81,3.37c-.3.55-.97.78-1.54.52l-3.86-1.75c-.32-.14-.55-.42-.65-.75-.1-.33-.05-.69.14-.98l.61-.95-1.71-1.68-4.46.29-1.73.2c-.55.06-1.07-.26-1.26-.78l-.07-.19-.22.06c-.24.06-.49.05-.72-.03l-.88-.32c-.15-.06-.29-.14-.41-.26l-.63-.6-2.52.43c-.38.07-.78-.06-1.05-.34-.18-.19-.3-.42-.33-.67l-3.51.83c-.37.09-.75,0-1.04-.24l-1.69-1.41h-.44l-.6.63c-.41.43-1.08.49-1.56.14l-1.09-.79-1.3.15-.56,1.02c-.05.1-.12.18-.19.26l-2.05,2.1c-.14.15-.33.26-.52.31l-.79.23v.53c.02.49-.26.94-.72,1.13l-2.18.92-.76,1.78c-.08.2-.22.37-.39.49l-.3.22c-.41.3-.97.31-1.39.02l-.95-.66c-.19.34-.55.58-.96.61l-.66.05c-.43.03-.83-.17-1.07-.52l-.17.19c-.07.08-.15.15-.24.21l.41.49c.21.24.31.56.28.88-.03.32-.19.61-.43.81l-.97.79.68,3.5c.07.38-.04.77-.31,1.05-.27.28-.65.41-1.03.36l-.45-.06-.14.94c-.08.55-.54.97-1.1,1.01l-3.99.28-.46.35-1.09,1.66-.55,2.04c-.13.47-.52.81-.99.87l1.31,2.14c.31.51.2,1.17-.25,1.54l1.07,1.67,2.43,1.52.74-.7c.37-.35.93-.43,1.38-.19.45.24.7.74.62,1.24l-.45,2.86c-.02.14-.07.27-.14.39l-.67,1.2,1.37.74c.1.06.2.12.28.21.35-.19.78-.19,1.14,0l7.31,4.01c.23.12.41.32.52.56l2.83,6.31c.12.26.14.56.05.84l-.43,1.41,1.97.43.52-1.36c.14-.36.44-.63.81-.73.1-.03.2-.04.3-.04ZM110.95,132.08h0,0Z"/>
      <g>
        <polygon class="cls-6" points="90.05 199.58 92.79 192.14 94.9 187.16 95.55 184.16 97.84 184.73 99.73 181.66 104.13 185.04 104.65 184.71 104.89 185.6 105.79 185.46 108.31 188.42 108.24 187.44 109.01 186.88 109.73 186.9 110.15 187.89 110.42 187.78 111.21 188.87 111.66 188.91 112.27 189.8 112.3 190.33 113.29 190.27 114.3 190.41 113.65 187.77 113.91 187.68 116.3 193 117.96 193.09 118.09 193.72 118.63 194.26 118.77 193.7 119.57 193.8 120.18 193.88 121.37 193.84 122.33 193.58 123.29 194.83 123.35 195.12 123.56 195.47 123.92 196.15 124.76 195.31 125.61 196.08 131.34 194.19 132.99 197.73 134.71 196.95 135.36 196.61 136.14 196.16 137.61 194.84 141.28 194.82 144.21 195.97 146.8 199.34 148.71 200.85 150.51 197.92 152.49 193.75 153.36 191.89 156.3 190.06 158.17 187.73 161.23 185.62 161.31 185.55 166.69 186.71 167.21 185.66 168.63 185.61 168.82 186.4 172.99 186.52 178.03 187.42 175.85 184.11 174 182.29 173.21 180.2 176.94 176.94 175.59 174.48 175.11 172.1 174.65 169.77 174.02 167.21 172.57 166.71 173.18 159.55 173.18 159.31 164.05 158.98 159.92 160.06 157.6 158.03 151.86 163.03 150.19 161.89 149.09 163.3 143.8 161.68 141.6 162.23 142.39 163.5 141.59 164.1 139.87 162.67 137.39 163.19 135.65 165.48 131.83 165.38 129.94 166.47 126.65 163.71 125.77 166.04 121.53 165.11 122.35 162.46 119.52 156.16 112.21 152.15 111.16 153.26 110.11 153.14 108.56 154.98 104.92 153.41 104.92 155.3 100.4 152.65 98.12 153.59 96.68 157.3 98.42 157.6 98.2 158.93 96.06 159.05 95 160.64 97.84 162.67 97.46 163.63 95.74 162.69 95.29 164.3 92.18 164.03 89.48 162.3 89.7 164.16 87.38 165.06 87.98 166.83 87.27 166.91 85.64 164.87 83.86 167.87 84.38 169.98 83.71 170.25 82.79 169.09 82.31 170.9 79.78 171.17 73.42 169.93 71.54 174.1 73.06 176.29 71.33 178.44 73.21 182.88 73.85 188.53 71.16 191.58 78.31 198.85 82.68 200.61 85.97 205.14 85.97 205.14 85.89 204.64 90.05 199.58"/>
        <path class="cls-1" d="M85.97,206.33c-.37,0-.74-.18-.97-.49l-3.09-4.26-4.05-1.63c-.15-.06-.29-.15-.41-.27l-7.15-7.27c-.44-.45-.46-1.16-.04-1.63l2.34-2.65-.57-4.95-1.81-4.28c-.17-.4-.11-.87.17-1.21l1.17-1.46-1.01-1.46c-.24-.34-.28-.79-.11-1.17l1.88-4.17c.23-.5.77-.79,1.32-.68l6.19,1.2,1.53-.16.27-1.01c.12-.44.47-.77.91-.86.04,0,.08-.01.12-.02,0-.23.05-.45.17-.65l1.78-3c.2-.34.55-.55.94-.58.39-.02.77.14,1.01.45l.03.03c.1-.09.21-.16.34-.21l1.46-.57-.11-.94c-.05-.46.16-.91.55-1.15.39-.24.89-.24,1.28,0l2.45,1.57,1.83.16.18-.66c.04-.15.11-.29.21-.42l-.49-.35c-.52-.37-.66-1.1-.3-1.63l1.05-1.59c.15-.22.36-.38.6-.47,0-.01-.01-.02-.02-.03-.18-.31-.2-.69-.07-1.02l1.45-3.71c.12-.3.36-.55.66-.67l2.28-.94c.35-.14.74-.12,1.06.07l2.73,1.61c.05-.33.24-.63.52-.81.34-.22.76-.26,1.13-.1l2.82,1.22.99-1.17c.26-.3.65-.46,1.04-.42l.45.05.64-.68c.37-.39.96-.48,1.44-.22l7.31,4.01c.23.12.41.32.52.56l2.83,6.31c.12.26.14.56.05.84l-.43,1.41,1.97.43.52-1.36c.14-.36.44-.63.81-.73.37-.1.77,0,1.07.24l2.65,2.22,1.17-.67c.19-.11.41-.16.63-.16l3.2.08,1.37-1.8c.17-.23.42-.39.7-.44l2.48-.52c.32-.07.65,0,.92.18.16-.3.44-.52.77-.61l2.21-.55c.21-.05.43-.05.64.02l4.5,1.38.6-.76c.39-.49,1.09-.6,1.61-.25l.91.62,5.04-4.39c.45-.39,1.12-.39,1.57,0l1.85,1.61,3.53-.92c.11-.03.23-.04.34-.04l9.13.33c.65.02,1.17.57,1.15,1.23v.24s0,.04-.01.07l-.53,6.24.56.19c.38.13.68.45.77.84l.63,2.56s0,.03.01.05l.9,4.53,1.26,2.29c.27.49.16,1.1-.26,1.47l-3.11,2.72.41,1.07,1.66,1.64c.06.06.11.12.16.19l2.18,3.31c.26.4.26.92,0,1.31-.26.4-.74.6-1.21.52l-4.95-.88-4.09-.12c-.39-.01-.74-.21-.95-.51l-.08.15c-.24.49-.79.76-1.32.64l-4.85-1.05-2.59,1.79-1.77,2.19c-.08.1-.18.19-.3.26l-2.64,1.65-2.7,5.72s-.04.08-.06.12l-1.8,2.93c-.18.29-.47.49-.81.55-.34.06-.68-.03-.95-.24l-1.91-1.52c-.08-.06-.14-.13-.2-.21l-2.39-3.11-2.4-.95-2.99.02-1.13,1.01c-.06.05-.12.1-.19.14l-.78.46s-.03.02-.05.03l-.65.34s-.04.02-.06.03l-1.73.78c-.6.27-1.3,0-1.57-.58l-1.2-2.58-4.72,1.55c-.41.13-.85.04-1.17-.25h0s-.04.03-.04.03c-.27.27-.65.4-1.02.34-.38-.06-.7-.29-.88-.63l-.34-.65-.19-.32c-.07-.12-.12-.25-.15-.39v-.02s-.31-.4-.31-.4l-.2.05c-.08.02-.17.04-.26.04l-1.19.04c-.07,0-.14,0-.21-.01l-.45-.06c-.16.2-.37.35-.62.41-.41.11-.86,0-1.16-.31l-.54-.54c-.1-.1-.18-.21-.23-.33l-.77-.04c-.45-.02-.84-.3-1.02-.7l-.85-1.89c-.08,0-.16,0-.24,0l-.88-.13-.87.06c-.32.02-.64-.09-.88-.3-.24-.21-.38-.52-.4-.84v-.19s-.12-.16-.12-.16c-.3-.06-.56-.22-.74-.47l-.37-.52c-.06-.01-.12-.03-.17-.06-.1-.04-.19-.09-.27-.16-.11.3-.35.56-.66.68-.48.2-1.03.06-1.36-.33l-2.09-2.45-.24.04c-.5.08-.98-.16-1.22-.58-.16-.04-.32-.11-.46-.22l-3.35-2.57-1.19,1.94c-.27.44-.8.66-1.31.53l-1.1-.27-.39,1.8c-.02.07-.04.14-.07.21l-2.1,4.96-2.73,7.41c-.05.13-.11.24-.2.35l-3.82,4.64c.07.53-.22,1.05-.72,1.26-.15.06-.3.09-.46.09ZM78.98,197.84l4.14,1.66c.21.08.39.22.52.41l2.16,2.97,3.21-3.9,2.67-7.24s.01-.04.02-.05l2.07-4.88.62-2.89c.07-.32.26-.59.54-.76s.61-.22.92-.15l1.45.36,1.43-2.32c.18-.29.47-.49.8-.55.33-.06.68.02.94.23l3.76,2.88c.28-.11.58-.11.87,0,.31.12.55.36.67.66.36,0,.71.14.94.42l1.26,1.49.35-.25c.21-.15.47-.23.73-.23h.72c.47.02.89.31,1.08.75l.11.27c.17.08.32.21.44.37l.48.66c.23.04.45.15.62.32h0c-.15-.61.2-1.23.79-1.42l.27-.09c.58-.19,1.21.09,1.45.65l2.09,4.66.93.05c.42.02.79.27.99.63l.7.08s.02,0,.02,0l.5.07.95-.03.83-.22c.46-.12.95.04,1.24.42l.97,1.24s.05.07.07.11c.41-.17.9-.09,1.25.22l.34.31,5.07-1.67c.57-.19,1.2.08,1.45.63l1.15,2.47.62-.28.59-.31.65-.38,1.38-1.23c.22-.19.5-.3.79-.3l3.67-.03c.15,0,.3.03.45.08l2.93,1.15c.2.08.38.21.51.38l2.5,3.25.74.59,1.06-1.73,2.82-5.97c.1-.21.25-.38.45-.5l2.77-1.73,1.75-2.17c.07-.09.16-.17.25-.23l3.05-2.12c.28-.24.66-.34,1.03-.26l4.46.97.11-.22c.19-.4.59-.65,1.03-.67l1.42-.05c.53-.02,1.01.32,1.17.82l3.26.09c.06,0,.12,0,.18.02l2.3.41-.58-.88-1.76-1.74c-.12-.12-.22-.27-.28-.43l-.79-2.09c-.18-.47-.05-.99.33-1.32l3.01-2.63-.89-1.61c-.06-.11-.1-.22-.13-.34l-.94-4.69-.47-1.9-.83-.28c-.52-.18-.85-.68-.8-1.23l.52-6.15-7.72-.28-3.97,1.03c-.38.1-.79,0-1.09-.26l-1.54-1.34-4.95,4.31c-.41.36-1.01.39-1.45.09l-.75-.51-.42.53c-.3.39-.82.55-1.29.4l-4.97-1.52-.3.07c.24.51.09,1.12-.37,1.46l-.81.6c-.44.33-1.05.31-1.47-.04l-1.27-1.06-1.48.31-1.47,1.93c-.23.3-.59.48-.98.47l-3.48-.09-1.6.92c-.43.25-.98.2-1.36-.12l-2-1.68-.28.75c-.21.55-.79.87-1.37.74l-4.24-.93c-.33-.07-.61-.28-.78-.56-.17-.29-.21-.63-.11-.95l.69-2.22-2.48-5.53-6.15-3.37-.42.44c-.26.27-.63.41-1,.36l-.41-.05-1.15,1.36c-.34.4-.9.53-1.39.33l-1.97-.85v.07c0,.43-.23.82-.6,1.03-.37.21-.83.21-1.2,0l-4-2.35-1.26.52-.73,1.87.3.05c.65.11,1.08.72.98,1.37l-.21,1.34c-.09.55-.55.97-1.11,1l-1.55.08-.08.13,1.9,1.36c.45.32.62.9.42,1.41l-.38.97c-.13.32-.38.57-.7.69-.32.12-.68.09-.98-.07l-.41-.22-.05.16c-.15.55-.68.92-1.25.87l-3.11-.27c-.19-.02-.38-.08-.54-.19l-.72-.46c-.12.31-.36.57-.68.69l-1.25.49.23.69c.12.34.07.72-.12,1.03-.2.31-.52.51-.88.54l-.71.08c-.41.05-.81-.12-1.06-.44l-.55-.69-.65,1.09.4,1.64c.14.58-.16,1.17-.72,1.39l-.67.27c-.25.1-.51.11-.75.04-.17.38-.54.64-.96.68l-2.53.27c-.12.01-.24,0-.35-.02l-5.44-1.06-1.22,2.69,1.13,1.64c.3.43.28,1.01-.05,1.43l-1.28,1.6,1.6,3.79c.04.1.07.22.09.33l.65,5.65c.04.34-.07.67-.29.93l-1.96,2.22,6.19,6.3ZM90.05,199.58h0,0Z"/>
      </g>
      <path class="cls-2" d="M111.64,122.45l1.8.05-.75-4.36-6.19-.67.4-1.27-.92-1.39-5.86-3.49-.21-2.39-1.54-.39-1.27-3.04.99-.08-1.1-1.92-.15-2.23,5.96-.65-.5-9.26,2.23-.07.42-5.39,2.39-3.76-.32-3.27-5.63.34-4.56-1.6-4.01,2.5-3.31-1.04-1.26,1.19-1.63-1.35-3.01,1.21,5.25,5.15-2.53,3.37-1.43,4.03-.1,2.93,1.8.32-.36,2.1-.5.74-4.85-3.19-3.11.09,1.35,1.96-1.73.39.3,2.33-2.34,1.96-5.8-2.66-.36-1.62-1.59,3.03-3.48-.35-1.19,1.73-.04,1.81,1.62,1.58.59,1.96,2.37,2.28-.24,1.69-2.41.46.49,2.45-1.96,3.62.08,1.73.81-.06.66.45.31,1.15,1.91,1.66.59,2.96,1.41.69-.76,1.72-.62.55-3.36.7-2.05,1.18,1.82,3.57-.2.61-1.36.11.06,1.83-.69,2.52-3.28,1.19,1.54,2.62-.37.03,1.42,1.08-1.28.1,2.01,5.31-1.38,1.19.25,4.07,1.76.02.69-.5.45.73.52-.98,1.09-.19-.28,2.15.39.13,2.71,2.65,1.32-1.28.57,3.98.95.14.21.81-1.4.77,1.9.94s.84.21,1.13,2.01.56,3.34.56,3.34l6.36,1.24,2.53-.27.48-1.81.92,1.16.67-.27-.52-2.12,1.78-3,1.63,2.04.71-.08-.6-1.77,2.31-.91-.22-1.86,2.7,1.73,3.11.27.45-1.61,1.73.94.38-.97-2.84-2.03,1.05-1.59,2.15-.11.21-1.34-1.74-.3,1.45-3.71,2.28-.94,4.52,2.65v-1.89s3.64,1.57,3.64,1.57l1.56-1.84,1.04.12-.35-1.31-2.44-1.32,1.26-2.26.45-2.86-1.41,1.34-3.44-2.15-1.82-2.84.84-.62-1.6-2.6-2.63-.55.65-1.02,3.11.23.6-2.23,1.31-2,.91-.69,4.35-.3.32-2.11,1.62.23-.82-4.2,1.52-1.24-1.94-2.31Z"/>
      <path class="cls-1" d="M79.78,172.36c-.08,0-.15,0-.23-.02l-6.36-1.24c-.49-.09-.86-.48-.95-.96,0-.02-.28-1.57-.57-3.35-.12-.77-.35-1.03-.41-1.1-.03-.01-.05-.02-.08-.03l-1.9-.94c-.4-.2-.65-.6-.66-1.05,0-.4.18-.77.5-1-.13-.16-.21-.35-.24-.57l-.25-1.76c-.43.18-.94.09-1.29-.25l-2.51-2.46-.14-.05c-.42-.14-.72-.51-.79-.93-.04,0-.07,0-.11,0-.3.01-.6-.09-.82-.29-.12.04-.25.06-.38.06l-1.76-.02c-.62,0-1.14-.5-1.18-1.12l-.25-4.07c-.02-.37.13-.73.41-.98l.74-.64-1.71-4.52c-.11-.29-.1-.6.01-.88-.21-.28-.29-.65-.2-1l-1.03-1.76c-.18-.31-.21-.68-.09-1.01s.38-.6.72-.72l2.7-.98.48-1.75-.05-1.64c-.02-.63.46-1.17,1.09-1.23h.08s-1.31-2.57-1.31-2.57c-.29-.57-.08-1.26.47-1.58l2.05-1.18c.11-.06.23-.11.35-.13l3.05-.64.19-.17.19-.43-.38-.19c-.33-.16-.57-.47-.65-.84l-.51-2.56-1.6-1.39c-.18-.15-.31-.36-.37-.59l-.19-.69-.35.03c-.32.02-.64-.08-.88-.3-.24-.21-.39-.52-.4-.84l-.08-1.73c0-.22.04-.43.14-.62l1.76-3.24-.41-2.03c-.06-.31,0-.64.18-.9s.45-.45.77-.51l1.58-.3.03-.23-1.93-1.85c-.15-.14-.26-.32-.32-.52l-.5-1.67-1.4-1.36c-.24-.23-.37-.55-.36-.88l.04-1.81c0-.23.08-.46.21-.65l1.19-1.73c.25-.36.67-.56,1.1-.51l2.68.27,1.21-2.32c.23-.44.71-.7,1.21-.63.5.06.9.43,1.01.92l.23,1.04,4.58,2.1,1.26-1.05-.22-1.68c-.08-.61.32-1.18.92-1.32h0s-.35-.51-.35-.51c-.25-.36-.28-.83-.08-1.22s.59-.64,1.03-.65l3.11-.09c.24,0,.49.06.69.2l2.12,1.39c-.04-.13-.06-.26-.06-.4l.1-2.93c0-.12.03-.24.07-.36l1.43-4.03c.04-.11.1-.22.17-.32l1.9-2.53-4.5-4.41c-.29-.28-.41-.69-.33-1.09.08-.4.35-.72.73-.87l3.01-1.21c.41-.16.87-.09,1.21.19l.81.67.49-.46c.31-.3.77-.4,1.18-.27l2.79.88,3.54-2.21c.31-.19.68-.23,1.03-.11l4.34,1.52,5.39-.33c.64-.04,1.2.44,1.26,1.07l.32,3.27c.03.27-.04.53-.18.76l-2.23,3.51-.4,5.09c-.05.61-.54,1.08-1.15,1.1l-1.01.03.44,8.04c.03.63-.43,1.18-1.06,1.25l-4.82.53.05.81.97,1.68c.2.36.21.79.02,1.15-.09.17-.22.31-.37.42l.47,1.12.96.24c.49.12.86.55.9,1.06l.15,1.78,5.33,3.18c.15.09.29.22.38.37l.92,1.39c.18.26.24.59.17.89l4.76.51c.53.06.96.46,1.05.98l.75,4.36c.06.35-.04.71-.27.98-.08.09-.16.16-.26.22l.41.49c.21.24.31.56.28.88-.03.32-.19.61-.43.81l-.97.79.68,3.5c.07.38-.04.77-.31,1.05-.27.28-.65.41-1.03.36l-.45-.06-.14.94c-.08.55-.54.97-1.1,1.01l-3.99.28-.46.35-1.09,1.66-.55,2.04c-.13.47-.52.81-.99.87l1.31,2.14c.31.51.2,1.17-.25,1.54l1.07,1.67,2.43,1.52.74-.7c.37-.35.92-.43,1.38-.19.45.24.7.74.62,1.24l-.45,2.86c-.02.14-.07.27-.14.39l-.67,1.2,1.37.74c.29.16.5.42.59.74l.35,1.31c.1.38.01.79-.25,1.09s-.65.45-1.04.41l-.41-.05-1.15,1.36c-.34.4-.9.53-1.39.33l-1.97-.85v.07c0,.43-.23.82-.6,1.03-.37.21-.83.21-1.2,0l-4-2.35-1.26.52-.73,1.87.3.05c.65.11,1.08.72.98,1.37l-.21,1.34c-.09.55-.55.97-1.11,1l-1.55.08-.08.13,1.9,1.36c.45.32.62.9.42,1.41l-.38.97c-.13.32-.38.57-.7.69-.32.12-.68.09-.98-.07l-.41-.22-.05.16c-.15.55-.68.92-1.25.87l-3.11-.27c-.19-.02-.38-.08-.54-.19l-.72-.46c-.12.31-.36.57-.68.69l-1.25.49.23.69c.12.34.07.72-.12,1.03-.2.31-.52.51-.88.54l-.71.08c-.41.05-.81-.12-1.06-.44l-.55-.69-.65,1.09.4,1.64c.14.58-.16,1.17-.72,1.39l-.67.27c-.25.1-.51.11-.75.04-.17.38-.54.64-.96.68l-2.53.27s-.08,0-.12,0ZM74.45,168.92l5.38,1.05,1.53-.16.27-1.01c.12-.44.47-.77.91-.86.04,0,.08-.01.12-.02,0-.23.05-.45.17-.65l1.78-3c.2-.34.55-.55.94-.58.39-.02.77.14,1.01.45l.03.03c.1-.09.21-.16.34-.21l1.46-.57-.11-.94c-.05-.46.16-.91.55-1.15.39-.24.89-.24,1.28,0l2.45,1.57,1.83.16.18-.66c.04-.15.11-.29.21-.42l-.49-.35c-.52-.37-.66-1.1-.3-1.63l1.05-1.59c.15-.22.36-.38.6-.47,0-.01-.01-.02-.02-.03-.18-.31-.2-.69-.07-1.02l1.45-3.71c.12-.3.36-.55.66-.67l2.28-.94c.35-.14.74-.12,1.06.07l2.73,1.61c.05-.33.24-.63.52-.81.34-.22.76-.26,1.13-.1l2.82,1.22.95-1.12-1.37-.74c-.28-.15-.49-.41-.58-.72s-.05-.64.1-.92l1.13-2.02c-.15-.03-.29-.08-.42-.16l-3.44-2.15c-.15-.09-.28-.22-.37-.37l-1.82-2.84c-.33-.52-.22-1.2.26-1.58l-.76-1.23-2.13-.44c-.38-.08-.7-.34-.86-.71s-.12-.77.09-1.11l.65-1.02c.24-.37.66-.58,1.09-.55l2.13.16.34-1.27c.03-.12.08-.24.15-.35l1.31-2c.07-.11.17-.21.28-.3l.91-.69c.19-.14.41-.22.64-.24l3.4-.24.18-1.17c.1-.63.68-1.08,1.31-1.01l-.5-2.55c-.08-.43.08-.87.42-1.15l.58-.48-1.16-1.38c-.3-.36-.37-.86-.16-1.29.2-.42.64-.68,1.11-.68h.35s-.35-2.02-.35-2.02l-5.3-.57c-.36-.04-.67-.23-.87-.53-.2-.3-.25-.67-.14-1.01l.23-.73-.45-.69-5.62-3.35c-.33-.2-.55-.54-.58-.92l-.13-1.54-.72-.18c-.37-.09-.67-.35-.81-.7l-1.27-3.04c-.15-.35-.12-.76.08-1.08.05-.09.11-.16.18-.23l-.32-.55c-.09-.16-.14-.33-.16-.52l-.15-2.23c-.04-.64.43-1.2,1.06-1.26l4.84-.53-.44-8.13c-.02-.32.1-.64.31-.87.22-.24.52-.38.84-.39l1.17-.04.34-4.32c.02-.19.08-.38.18-.55l2.17-3.41-.17-1.72-4.49.27c-.16,0-.32-.01-.47-.07l-4.02-1.41-3.52,2.19c-.3.18-.66.23-.99.13l-2.64-.83-.75.71c-.44.42-1.12.44-1.58.05l-1.08-.9-.65.26,3.94,3.87c.43.42.48,1.09.12,1.57l-2.42,3.22-1.3,3.68-.06,1.71.79.14c.64.12,1.08.73.97,1.38l-.36,2.1c-.03.17-.09.33-.19.47l-.5.74c-.37.54-1.1.69-1.64.33l-4.54-2.98-.54.02.11.15c.22.33.27.74.13,1.11s-.46.64-.85.73l-.67.15.16,1.25c.05.4-.11.81-.42,1.07l-2.34,1.96c-.35.3-.84.36-1.26.17l-5.74-2.63-.45.86c-.23.43-.69.68-1.18.63l-2.78-.28-.59.85-.02.93,1.25,1.21c.14.14.25.32.31.51l.5,1.66,2.15,2.06c.28.27.41.65.36,1.03l-.24,1.68c-.07.5-.46.91-.96,1l-1.23.23.26,1.27c.06.27.01.56-.12.81l-1.81,3.33v.25c.13.03.24.09.35.16l.66.45c.23.16.4.4.48.67l.22.8,1.63,1.42c.2.17.34.41.39.67l.47,2.38.88.43c.58.28.83.97.57,1.56l-.76,1.72c-.07.16-.17.3-.31.41l-.62.55c-.15.14-.34.23-.54.27l-3.17.66-.9.52,1.31,2.56c.14.28.17.61.07.91l-.2.61c-.15.46-.56.78-1.04.82l-.23.02.02.69c0,.12-.01.24-.04.35l-.69,2.52c-.1.37-.38.67-.74.8l-1.93.7.81,1.38c.06.09.1.19.12.3l.62.47c.4.3.56.81.42,1.29-.11.38-.4.67-.75.79l1.46,3.85c.18.47.04,1-.34,1.33l-.93.8.15,2.38h.26s.37-.27.37-.27c.26-.19.59-.26.91-.21.16-.13.34-.21.55-.25l1.09-.19c.37-.07.76.05,1.03.31.27.26.41.64.36,1.02l-.17,1.34,1.81,1.78.48-.47c.32-.31.79-.42,1.22-.28.43.14.73.52.8.96l.44,3.09h.06c.48.08.87.43.99.89l.21.81c.08.32.02.66-.14.93.48.21,1.46.88,1.79,2.89.16.98.31,1.89.42,2.51ZM71.43,165.74s0,0,0,0c0,0,0,0,0,0ZM71.42,165.74s0,0,0,0c0,0,0,0,0,0ZM71.42,165.74h0s0,0,0,0ZM85.01,96.85l.19.13.02-.09-.21-.04Z"/>
      <path class="cls-4" d="M21,124.47h-.11s-2.43,1.84-2.43,1.84l-1.82-.4-1.13-.31-5.26,2.55-3.18-.37-2.57-.29-.48-.05-.03.34-1.3-.13-1.39-.76-.11.04.06,3.91.84,4.98.7.69,1.35,1.1,1.37,1.34.23,3,1.48.73-1.72,2.01.89,1.43,3.3.99,1.29,4.28,1.31,1.04,1.51,1.2-.31,2.7.46,1.44,1.67,4.29-1.43,1.47-1.17,1.18.24,1.88,1.25,1.03.1,4.23,1.31-.22-.25,1.25.34.35,1.41.21v-.3s-.04-.36-.04-.36l.52-.34.15-.12.6-.43.3.27.3-.11.33.33,1.34.53.18.03,2.17.17,1.18-.72.6.63,1.01-.71,1.91.14.65,1.44-1.56,1.47.05,1.93,2.47-.19.16,1.5,1.51-.03,2.27,2.78-.38.95.5-.12.45.42v.39s-.26.73-.26.73l.25.98-.07.45-.09.29-.33.32-1.86,1.16,1.28,1.16,1.94,2.73.14.58-.03.54-.12.41-.16,1.17-1.2.98.92,1.81,1.79,3.26,1.95,3.61,1.07.3,1.29,1.81.73.12.57-1,1.61-.17.99.62.46-.03,1.91-.3,1.51.95,1.17,1.13,1.87-.85,2.06,1.54,2.01.38.18.79,1.14,5.16,1.13.9,4.35,3.6,2.28,1.81-.16,1.21.6.94,1.69-.49,1.01.69-.54.73.27.16-.25.37,2.57.51.65,2.76,5.54-.17.99-.27.87,1.03.67-1.01.75-.89,1.69-1.55.26-.71.03-1.31.7-6.42.36-1.87,2.57-2.54,1.46-3.93-.32-1.99h0l-3.29-4.53-4.37-1.75-7.15-7.27,2.69-3.05-.65-5.65-1.87-4.44,1.72-2.15-1.52-2.19,1.88-4.17s-.27-1.54-.56-3.34-1.13-2.01-1.13-2.01l-1.9-.94,1.4-.77-.21-.81-.95-.14-.57-3.98-1.32,1.28-2.71-2.65-.39-.13.28-2.15-1.09.19-.52.98-.45-.73-.69.5-1.76-.02-.25-4.07,1.38-1.19-2.01-5.31,1.28-.1-1.42-1.08.37-.03-1.54-2.62,3.28-1.19.69-2.52-.06-1.83,1.36-.11.2-.61-1.82-3.57,2.05-1.18,3.36-.7.62-.55.76-1.72-1.41-.69-.59-2.96-1.91-1.66-.31-1.15-.66-.45-.81.06-.08-1.73-7-6.04-.46,1.19-1.92-.35-.61-1.54,2.2-2.42-.51-1.08-1.74.52-2.36,4.63-2.32.67-.05,1.42-5.23,1.4-.39,3.99-3.1-.21.56,1.29-5.85,7.14-1.85-.12-1.7-.92-.83.27-.62-1.18-5.14-1.42.09.76-2.54-.53-1.02-1.26Z"/>
      <path class="cls-1" d="M77.84,228.54c-.35,0-.68-.15-.91-.42l-.38-.45-.26.07c-.09.02-.18.04-.28.04l-5.54.17c-.57.01-1.07-.37-1.2-.92l-.47-2.01-1.82-.36c-.39-.08-.72-.35-.87-.72-.09-.22-.11-.46-.07-.68,0-.02-.01-.04-.01-.06-.01-.07-.02-.13-.02-.2l-.63.18c-.51.15-1.05-.06-1.34-.5l-.6-.94c-.15-.24-.22-.52-.18-.8l.07-.54-1.75-1.39s-.01-.01-.02-.02l-4.34-3.59-1.12-.89c-.22-.17-.37-.41-.42-.68l-1.14-5.18-1.25-.24c-.18-.03-.35-.11-.49-.22l-1.49-1.11-1.23.56c-.45.2-.97.11-1.32-.23l-1.08-1.04-1.02-.64-1.47.23s-.07,0-.1.01l-.46.03c-.25.02-.5-.04-.71-.18l-.64-.4-.59.06-.27.47c-.24.43-.73.67-1.23.59l-.73-.12c-.32-.05-.6-.23-.79-.49l-1.04-1.47-.66-.18c-.31-.09-.58-.3-.73-.58l-1.95-3.61-1.79-3.25s-.01-.02-.02-.03l-.92-1.81c-.26-.5-.13-1.11.31-1.47l.83-.68.09-.7c0-.06.02-.12.04-.18l.08-.28v-.22s-.03-.18-.03-.18l-1.73-2.44-1.19-1.07c-.28-.25-.42-.62-.39-.99.03-.37.24-.71.56-.91l1.75-1.1v-.06s-.18-.74-.18-.74c-.05-.2-.05-.41,0-.62-.17-.07-.33-.18-.45-.33-.29-.34-.37-.81-.2-1.22l.12-.29-1.45-1.78-.93.02c-.63,0-1.15-.45-1.21-1.07l-.04-.35-1.31.1c-.33.03-.65-.08-.89-.3-.24-.22-.39-.53-.39-.86l-.05-1.93c0-.34.13-.67.37-.9l.94-.88v-.02s-.79-.06-.79-.06l-.66.46c-.46.32-1.08.28-1.48-.09l-.36.22c-.21.13-.46.19-.71.17l-2.17-.17s-.07,0-.11-.01l-.18-.03c-.08-.01-.16-.04-.23-.07l-1.34-.53c-.09-.04-.18-.08-.26-.14-.06,0-.12-.01-.18-.02l-.06.05s-.02.02-.03.02c.01.35-.13.7-.4.93-.27.24-.62.34-.97.29l-1.41-.21c-.26-.04-.5-.16-.68-.35l-.34-.35c-.18-.19-.29-.43-.33-.68-.23-.02-.45-.12-.64-.27-.27-.22-.42-.55-.43-.89l-.08-3.69-.83-.68c-.23-.19-.38-.47-.42-.77l-.24-1.88c-.05-.37.08-.73.34-1l1.17-1.18.89-.91-1.39-3.57s-.02-.05-.03-.07l-.46-1.44c-.05-.16-.07-.33-.05-.5l.24-2.04-2.3-1.82c-.19-.15-.33-.36-.4-.59l-1.11-3.66-2.69-.81c-.28-.08-.52-.27-.67-.51l-.89-1.43c-.27-.44-.23-1.01.11-1.41l.72-.84-.1-.05c-.38-.19-.63-.56-.66-.98l-.19-2.55-1.01-.98-1.31-1.06s-.06-.05-.08-.07l-.7-.69c-.18-.18-.3-.41-.34-.66l-.84-4.98c-.01-.06-.02-.12-.02-.18L0,126.95c0-.5.29-.94.75-1.13l.11-.04c.33-.13.7-.11,1.01.06l1.18.64.23.02c.24-.19.55-.28.86-.25l.48.05,2.58.29,2.84.33,4.95-2.4c.26-.13.56-.15.84-.08l1.1.3,1.26.27,2-1.51c.22-.17.5-.25.78-.24h.11c.34.02.66.18.87.44l.75.93.81.17c.06-.08.12-.15.2-.22.3-.26.71-.35,1.1-.25l5.14,1.42c.32.09.59.3.74.6l.16.3c.27-.06.56-.01.81.12l1.47.8.97.06,5-6.1-.27-.62c-.17-.38-.12-.82.12-1.16.24-.34.64-.53,1.06-.5l1.95.13.28-2.84c.05-.5.4-.91.88-1.04l4.38-1.17.02-.54c.02-.52.37-.96.86-1.1l1.83-.53,2.12-4.17c.15-.29.41-.51.72-.6l1.74-.52c.56-.17,1.16.1,1.42.63l.51,1.08c.21.44.13.96-.19,1.32l-1.7,1.87.09.23.3.05.11-.27c.14-.36.45-.63.82-.73.38-.09.77,0,1.07.25l7,6.04c.25.21.4.52.41.85l.03.58c.12.03.23.09.34.16l.66.45c.23.16.41.4.48.67l.22.8,1.63,1.42c.2.17.34.41.39.67l.47,2.38.88.43c.58.28.83.97.57,1.56l-.76,1.72c-.07.16-.17.3-.31.42l-.62.55c-.15.14-.34.23-.54.27l-3.17.66-.9.52,1.31,2.56c.14.28.17.61.07.91l-.2.61c-.15.46-.56.78-1.04.82l-.24.02.02.69c0,.12-.01.24-.04.35l-.69,2.52c-.1.37-.38.67-.74.8l-1.93.7.81,1.38c.06.09.1.19.12.3l.62.47c.4.3.56.81.42,1.29-.11.38-.4.67-.75.79l1.46,3.85c.18.47.04,1-.34,1.33l-.93.8.15,2.38h.26s.37-.27.37-.27c.26-.19.59-.26.91-.21.16-.13.34-.21.55-.25l1.09-.19c.37-.07.76.05,1.03.31.27.26.41.64.36,1.02l-.17,1.34,1.81,1.78.48-.47c.32-.31.79-.42,1.22-.28.43.14.73.52.8.96l.44,3.09h.06c.48.08.87.43.99.89l.21.81c.08.32.02.66-.14.93.48.21,1.46.88,1.79,2.89.29,1.76.56,3.31.56,3.32.04.24.01.48-.09.7l-1.6,3.55,1.13,1.64c.3.43.28,1.01-.05,1.43l-1.28,1.6,1.6,3.79c.04.1.07.22.09.33l.65,5.65c.04.34-.07.67-.29.93l-1.96,2.22,6.19,6.3,4.14,1.66c.21.08.39.22.52.41l3.3,4.53c.11.15.18.33.21.51l.32,1.99c.03.2.01.41-.06.61l-1.46,3.93c-.06.16-.16.31-.28.43l-2.31,2.28-.28,1.46-.69,6.32-.03,1.26c0,.13-.03.26-.07.38l-.26.71c-.07.18-.17.34-.31.47l-1.64,1.5-.66.78-.64.95c-.21.31-.55.51-.93.53-.02,0-.04,0-.07,0ZM68.87,222.61l1.15.23c.46.09.82.44.93.9l.43,1.81,4.42-.14.86-.23c.38-.11.79-.01,1.08.24l.61-.73s.07-.08.11-.11l1.48-1.35.09-.25.03-1.11s0-.07,0-.1l.7-6.42s0-.06.01-.09l.36-1.87c.05-.24.16-.46.33-.63l2.38-2.36,1.26-3.39-.23-1.4-2.93-4.02-4.05-1.63c-.15-.06-.29-.15-.41-.27l-7.15-7.27c-.44-.45-.46-1.16-.04-1.63l2.34-2.65-.57-4.95-1.81-4.28c-.17-.4-.11-.87.17-1.21l1.17-1.46-1.01-1.46c-.24-.34-.28-.79-.11-1.17l1.73-3.83c-.1-.56-.3-1.72-.5-2.99-.12-.77-.35-1.03-.41-1.1-.03-.01-.05-.02-.08-.03l-1.9-.94c-.4-.2-.65-.6-.66-1.05,0-.4.18-.77.5-1-.13-.16-.21-.35-.24-.57l-.25-1.76c-.43.18-.94.09-1.29-.25l-2.51-2.46-.14-.05c-.42-.14-.72-.51-.79-.93-.04,0-.07,0-.11,0-.3.01-.6-.1-.82-.29-.12.04-.25.06-.38.06l-1.76-.02c-.62,0-1.14-.5-1.18-1.12l-.25-4.07c-.02-.37.13-.73.41-.98l.74-.64-1.71-4.52c-.11-.29-.1-.6.01-.88-.21-.28-.29-.65-.2-1l-1.03-1.76c-.18-.31-.21-.68-.09-1.01.12-.33.38-.6.72-.72l2.7-.98.48-1.75-.05-1.64c-.02-.63.46-1.17,1.09-1.23h.08s-1.31-2.57-1.31-2.57c-.29-.57-.08-1.26.47-1.58l2.05-1.18c.11-.06.23-.11.35-.13l3.05-.64.19-.17.19-.43-.38-.19c-.33-.16-.57-.47-.65-.84l-.51-2.56-1.6-1.39c-.18-.15-.31-.36-.37-.59l-.19-.69-.35.03c-.32.02-.64-.08-.88-.3-.24-.21-.39-.52-.4-.84l-.05-1.21-5.38-4.64c-.27.32-.69.48-1.12.4l-1.92-.35c-.4-.07-.74-.35-.9-.73l-.33-.82-.53,1.03c-.15.29-.41.51-.73.6l-1.49.43-.02.56c-.02.52-.38.97-.88,1.11l-4.43,1.19-.31,3.17c-.06.64-.62,1.12-1.27,1.07l-1.27-.09c0,.26-.1.52-.27.73l-5.85,7.14c-.24.3-.61.46-1,.43l-1.85-.12c-.17-.01-.34-.06-.5-.14l-1.25-.68-.34.11c-.55.18-1.15-.07-1.42-.58l-.38-.72-3.31-.91s-.07.08-.11.12c-.28.26-.68.37-1.05.29l-2.54-.53c-.27-.06-.51-.2-.68-.41l-.34-.41-1.58,1.2c-.28.21-.63.29-.97.22l-1.82-.4s-.04,0-.06-.02l-.69-.19-4.86,2.36c-.2.1-.43.14-.66.11l-3.18-.37-2.2-.24c-.24.19-.55.28-.86.25l-1.3-.13c-.05,0-.11-.01-.16-.03l.03,1.92.76,4.5.39.38,1.31,1.06s.06.05.08.07l1.37,1.34c.21.2.33.47.36.76l.18,2.32.87.43c.33.16.57.47.64.83.07.36-.02.74-.26,1.02l-1.15,1.34.19.3,2.87.86c.38.12.68.41.8.8l1.18,3.92,2.53,2.01c.32.26.49.66.44,1.07l-.28,2.45.37,1.16,1.65,4.25c.17.44.07.93-.26,1.26l-1.43,1.47-.77.77.11.83.89.73c.27.22.42.55.43.89l.06,2.85c.37-.05.75.08,1.01.35.2.2.31.47.33.74l.09-.06.11-.09s.03-.02.05-.04l.6-.43c.39-.28.9-.3,1.31-.06.31,0,.61.12.83.35l.15.15,1,.39,1.73.13.85-.52c.43-.27.98-.22,1.37.09l.18-.13c.23-.16.5-.23.78-.21l1.91.14c.44.03.82.3,1,.7l.65,1.44c.21.46.1,1.01-.27,1.36l-1.17,1.1v.14s1.22-.09,1.22-.09c.64-.05,1.21.42,1.28,1.07l.04.41h.41c.37-.02.72.14.95.43l2.27,2.78c.22.26.3.61.25.93l.22.2c.23.22.36.51.37.83v.39c.02.15,0,.31-.06.45l-.14.38.16.62c.04.16.05.32.02.48l-.07.45c0,.05-.02.11-.04.16l-.09.29c-.06.19-.16.37-.31.51l-.33.32c-.06.06-.13.11-.2.16l-.52.32.11.1c.06.06.12.12.17.19l1.94,2.73c.09.12.15.26.19.41l.14.58c.03.11.04.23.03.35l-.03.54c0,.09-.02.18-.05.27l-.1.32-.14,1.08c-.04.3-.19.58-.43.77l-.45.37.48.93,1.78,3.24,1.72,3.18.58.16c.26.07.49.24.65.46l.64.91c.2-.27.5-.45.84-.48l1.61-.17c.26-.03.53.03.76.17l.66.41h.02s1.86-.29,1.86-.29c.28-.04.58.01.82.17l1.51.95c.07.04.13.09.19.15l.59.57,1.13-.52c.4-.18.86-.13,1.21.13l1.84,1.37,1.74.33c.47.09.83.44.94.9l.18.79,1.05,4.76.8.63s.01.01.02.02l4.34,3.59,2.27,1.8c.33.26.5.68.44,1.09l-.07.55.69-.2c.34-.1.71-.04,1.01.16l1.01.69c.27.18.45.47.5.79.03.19.02.39-.04.57ZM71.48,165.72s0,0,0,0c0,0,0,0,0,0ZM71.48,165.72s0,0,0,0c0,0,0,0,0,0ZM71.47,165.72s0,0,0,0c0,0,0,0,0,0ZM71.47,165.72s0,0,0,0c0,0,0,0,0,0Z"/>
    </g>
  </g>
</svg>